<svg xmlns="http://www.w3.org/2000/svg" viewBox="0 0 500 500"><g id="freepik--background-complete--inject-181"><rect y="382.4" width="500" height="0.25" style="fill:#ebebeb"></rect><rect x="416.78" y="398.49" width="33.12" height="0.25" style="fill:#ebebeb"></rect><rect x="260.33" y="395.36" width="12.89" height="0.25" style="fill:#ebebeb"></rect><rect x="322.53" y="396.42" width="27.14" height="0.25" style="fill:#ebebeb"></rect><rect x="359.67" y="389.21" width="56.11" height="0.25" style="fill:#ebebeb"></rect><rect x="52.46" y="400.78" width="26.53" height="0.25" style="fill:#ebebeb"></rect><rect x="87.89" y="400.78" width="23" height="0.25" style="fill:#ebebeb"></rect><rect x="131" y="395.24" width="60.81" height="0.25" style="fill:#ebebeb"></rect><path d="M237,337.8H43.92a5.71,5.71,0,0,1-5.71-5.71V60.66A5.71,5.71,0,0,1,43.92,55H237a5.71,5.71,0,0,1,5.71,5.71V332.09A5.71,5.71,0,0,1,237,337.8ZM43.92,55.2a5.47,5.47,0,0,0-5.46,5.46V332.09a5.47,5.47,0,0,0,5.46,5.46H237a5.47,5.47,0,0,0,5.46-5.46V60.66A5.47,5.47,0,0,0,237,55.2Z" style="fill:#ebebeb"></path><path d="M453.31,337.8H260.21a5.72,5.72,0,0,1-5.71-5.71V60.66A5.72,5.72,0,0,1,260.21,55h193.1A5.71,5.71,0,0,1,459,60.66V332.09A5.71,5.71,0,0,1,453.31,337.8ZM260.21,55.2a5.47,5.47,0,0,0-5.46,5.46V332.09a5.47,5.47,0,0,0,5.46,5.46h193.1a5.47,5.47,0,0,0,5.46-5.46V60.66a5.47,5.47,0,0,0-5.46-5.46Z" style="fill:#ebebeb"></path><rect x="74.66" y="94.7" width="148.38" height="156.58" transform="translate(297.71 345.99) rotate(180)" style="fill:#e6e6e6"></rect><rect x="68.37" y="94.7" width="151.74" height="156.58" transform="translate(288.47 345.99) rotate(180)" style="fill:#f0f0f0"></rect><rect x="74.66" y="251.28" width="148.38" height="5.85" transform="translate(297.71 508.42) rotate(180)" style="fill:#e6e6e6"></rect><rect x="57.88" y="251.28" width="151.74" height="5.85" transform="translate(267.5 508.42) rotate(180)" style="fill:#f0f0f0"></rect><rect x="74.76" y="105.94" width="138.95" height="134.11" transform="translate(317.23 28.76) rotate(90)" style="fill:#fafafa"></rect><polygon points="165.62 242.47 144.34 103.52 119.92 103.52 141.2 242.47 165.62 242.47" style="fill:#fff"></polygon><polygon points="135.95 242.47 114.67 103.52 105.15 103.52 126.43 242.47 135.95 242.47" style="fill:#fff"></polygon><rect x="8.27" y="172.43" width="138.95" height="1.12" transform="translate(250.74 95.25) rotate(90)" style="fill:#e6e6e6"></rect><rect x="74.27" y="167.44" width="139.93" height="11.11" style="fill:#f0f0f0"></rect><rect x="273.22" y="175.92" width="17.06" height="206.48" transform="translate(563.51 558.32) rotate(180)" style="fill:#e6e6e6"></rect><polygon points="277.71 382.4 273.22 382.4 273.22 374.02 282.41 374.02 277.71 382.4" style="fill:#f0f0f0"></polygon><rect x="411.3" y="175.92" width="17.06" height="206.48" transform="translate(839.67 558.32) rotate(180)" style="fill:#e6e6e6"></rect><rect x="273.22" y="175.92" width="142" height="203.55" transform="translate(688.44 555.39) rotate(180)" style="fill:#f0f0f0"></rect><rect x="276.7" y="179.25" width="135.04" height="58.98" rx="3.24" transform="translate(688.44 417.48) rotate(180)" style="fill:#e6e6e6"></rect><polygon points="410.73 382.4 415.22 382.4 415.22 374.02 406.03 374.02 410.73 382.4" style="fill:#f0f0f0"></polygon><rect x="276.7" y="247.77" width="135.04" height="58.98" rx="3.24" transform="translate(688.44 554.51) rotate(180)" style="fill:#e6e6e6"></rect><rect x="276.7" y="316.28" width="135.04" height="58.98" rx="3.24" transform="translate(688.44 691.54) rotate(180)" style="fill:#e6e6e6"></rect><path d="M317.08,186.53h51.27c2.16,0,4.23-3.22,5.71-8.89h-62.7C312.85,183.31,314.92,186.53,317.08,186.53Z" style="fill:#f0f0f0"></path><path d="M317.08,255h51.27c2.16,0,4.23-3.21,5.71-8.89h-62.7C312.85,251.83,314.92,255,317.08,255Z" style="fill:#f0f0f0"></path><path d="M317.08,323.55h51.27c2.16,0,4.23-3.21,5.71-8.89h-62.7C312.85,320.34,314.92,323.55,317.08,323.55Z" style="fill:#f0f0f0"></path><path d="M380.48,147.34s.23,28.81,8.92,28.81,8.93-28.81,8.93-28.81Z" style="fill:#e6e6e6"></path><path d="M286.67,147.55s.56,28.6,22.23,28.6,22.23-28.6,22.23-28.6Z" style="fill:#e6e6e6"></path><path d="M314.37,154.73s.42,21.42,16.65,21.42,16.65-21.42,16.65-21.42Z" style="fill:#f0f0f0"></path><path d="M336,160.45s.31,15.7,12.2,15.7,12.2-15.7,12.2-15.7Z" style="fill:#ebebeb"></path><path d="M395,151.57a.71.71,0,0,1-.32-.07c-1-.49-9.25-4.85-8.69-9.11a10.19,10.19,0,0,1,1.8-4.12c1.16-1.83,2-3.14.55-5.12-2.22-3,.2-5.49,2.34-7.67a15.26,15.26,0,0,0,2.64-3.18c.88-1.64.17-2.89-.81-4.62a11,11,0,0,1-1.83-5.41,12.38,12.38,0,0,1,5.94-10.79.7.7,0,1,1,.68,1.22,10.93,10.93,0,0,0-5.22,9.55,9.7,9.7,0,0,0,1.64,4.74c1,1.79,2.07,3.65.82,6a16.44,16.44,0,0,1-2.87,3.5c-2.31,2.36-3.65,3.9-2.21,5.87,2,2.74.68,4.84-.49,6.68a8.88,8.88,0,0,0-1.59,3.56c-.37,2.79,5.6,6.49,7.93,7.68a.7.7,0,0,1-.31,1.32Z" style="fill:#e6e6e6"></path><path d="M400.12,83.67s-11.15,12-3.6,19.52C410.19,103.19,400.12,83.67,400.12,83.67Z" style="fill:#f0f0f0"></path><path d="M384.27,87.12s1,16.33,11.66,16.06C405.36,93.28,384.27,87.12,384.27,87.12Z" style="fill:#f0f0f0"></path><path d="M405,113.64s-11.53-.74-12.27,6.77C398.88,127.88,405,113.64,405,113.64Z" style="fill:#f0f0f0"></path><path d="M383.41,102.75s1.36,11.47,8.88,10.85C398.53,106.23,383.41,102.75,383.41,102.75Z" style="fill:#f0f0f0"></path><path d="M382.78,123.43s6.84,3,5.06,7.5C382.13,133.42,382.78,123.43,382.78,123.43Z" style="fill:#f0f0f0"></path><path d="M394.08,131.33s-1.28,5.58-4.95,4.88C386.44,132.24,394.08,131.33,394.08,131.33Z" style="fill:#f0f0f0"></path><path d="M398.39,125.75s-5.77,4.73-9,1.08C389.8,120.61,398.39,125.75,398.39,125.75Z" style="fill:#f0f0f0"></path><rect x="72.2" y="289.44" width="70.86" height="92.96" style="fill:#f5f5f5"></rect><rect x="41.64" y="335.3" width="75.86" height="1.23" transform="translate(415.49 256.35) rotate(90)" style="fill:#e6e6e6"></rect><rect x="78.95" y="297.99" width="56.24" height="1.56" style="fill:#e6e6e6"></rect><rect x="144.3" y="289.44" width="70.86" height="92.96" style="fill:#f5f5f5"></rect><rect x="215.16" y="289.44" width="7.06" height="92.96" transform="translate(437.38 671.84) rotate(180)" style="fill:#e0e0e0"></rect><rect x="113.73" y="335.3" width="75.86" height="1.23" transform="translate(487.58 184.26) rotate(90)" style="fill:#e6e6e6"></rect><rect x="97.82" y="335.93" width="91.71" height="1.23" transform="translate(480.22 192.86) rotate(90)" style="fill:#e6e6e6"></rect><rect x="151.04" y="297.99" width="56.24" height="1.56" style="fill:#e6e6e6"></rect><path d="M139.4,298.77h0a1.33,1.33,0,0,1,1.33,1.32v21.6A1.33,1.33,0,0,1,139.4,323h0a1.33,1.33,0,0,1-1.33-1.32v-21.6A1.33,1.33,0,0,1,139.4,298.77Z" style="fill:#e0e0e0"></path><path d="M148,298.77h0a1.33,1.33,0,0,1,1.33,1.32v21.6A1.33,1.33,0,0,1,148,323h0a1.32,1.32,0,0,1-1.32-1.32v-21.6A1.32,1.32,0,0,1,148,298.77Z" style="fill:#e0e0e0"></path><rect x="70" y="286.28" width="154.5" height="4.41" style="fill:#ebebeb"></rect><rect x="212.17" y="286.28" width="12.33" height="4.41" style="fill:#e0e0e0"></rect></g><g id="freepik--Shadow--inject-181"><ellipse id="freepik--path--inject-181" cx="250" cy="416.24" rx="193.89" ry="11.32" style="fill:#f5f5f5"></ellipse></g><g id="freepik--Application--inject-181"><rect x="435.26" y="98.28" width="1" height="20.97" transform="translate(184.01 480.71) rotate(-69.92)" style="fill:#407BFF"></rect><rect x="417.27" y="98.85" width="1" height="6.69" transform="translate(178.37 459.49) rotate(-69.92)" style="fill:#407BFF"></rect><path d="M352.57,81.56l104.05,38a11.42,11.42,0,0,1,6.79,14.61l-79.66,218a11.42,11.42,0,0,1-14.61,6.79l-104-38a11.43,11.43,0,0,1-6.79-14.61L338,88.35A11.42,11.42,0,0,1,352.57,81.56Z" style="fill:#407BFF"></path><path d="M379.71,350.52l79.57-217.68a7.73,7.73,0,0,0-4.61-9.92L349.22,84.38A7.73,7.73,0,0,0,339.3,89L259.74,306.67a7.72,7.72,0,0,0,4.61,9.92l105.44,38.55A7.73,7.73,0,0,0,379.71,350.52Z" style="fill:#fff"></path><path d="M413.72,106.42h0a11.38,11.38,0,0,1-13,3.89l-2.1-.77a11.37,11.37,0,0,1-7.44-11.37h0Z" style="fill:#407BFF"></path><path d="M376.65,349.45h0a1.91,1.91,0,0,0,2.44-1.13L457.24,134.5a1.91,1.91,0,0,0-1.13-2.44h0a1.91,1.91,0,0,0-2.44,1.13L375.52,347A1.91,1.91,0,0,0,376.65,349.45Z" style="fill:#263238;opacity:0.1"></path><path d="M262.77,307.82h0a1.91,1.91,0,0,0,2.44-1.13L343.36,92.87a1.9,1.9,0,0,0-1.13-2.43h0a1.91,1.91,0,0,0-2.44,1.13L261.64,305.39A1.9,1.9,0,0,0,262.77,307.82Z" style="fill:#263238;opacity:0.1"></path><g style="opacity:0.9"><rect x="217.6" y="160.45" width="229.21" height="118.42" rx="9.35" transform="translate(600.02 -75.09) rotate(98.79)" style="fill:#fff"></rect><path d="M365.41,341.15a9.7,9.7,0,0,1-1.51-.12L265.34,325.8a9.86,9.86,0,0,1-8.23-11.23l32.16-208a9.85,9.85,0,0,1,11.23-8.23l98.56,15.23a9.86,9.86,0,0,1,8.23,11.24l-32.15,208A9.88,9.88,0,0,1,365.41,341.15ZM299,99.17a8.88,8.88,0,0,0-8.73,7.5L258.1,314.72a8.85,8.85,0,0,0,7.39,10.09L364.05,340a8.86,8.86,0,0,0,10.1-7.39l.49.08-.49-.08,32.15-208a8.86,8.86,0,0,0-7.39-10.1L300.35,99.28A9.14,9.14,0,0,0,299,99.17Z" style="fill:#407BFF"></path><path d="M383.27,196.15a10.64,10.64,0,0,1-1.48-.11l-89.74-13.87a9.55,9.55,0,0,1-8-10.91l6.58-42.53a9.41,9.41,0,0,1,3.79-6.25,9.5,9.5,0,0,1,7.11-1.74l89.74,13.87a9.58,9.58,0,0,1,8,10.9l-6.57,42.54a9.57,9.57,0,0,1-9.43,8.1Zm-83.2-74.52a8.55,8.55,0,0,0-8.44,7.25l-6.57,42.54a8.55,8.55,0,0,0,7.15,9.76L382,195.05a8.55,8.55,0,0,0,9.76-7.15l6.57-42.54a8.57,8.57,0,0,0-7.15-9.76l-89.74-13.87A8.38,8.38,0,0,0,300.07,121.63Z" style="fill:#407BFF"></path><path d="M371.32,260.81a12.5,12.5,0,0,1-1.82-.14L284.26,247.5a11.83,11.83,0,0,1,3.61-23.39l85.25,13.18a11.84,11.84,0,0,1,9.88,13.5A11.85,11.85,0,0,1,371.32,260.81ZM286.06,225a10.83,10.83,0,0,0-1.65,21.54l85.24,13.17A10.84,10.84,0,0,0,382,250.63h0A10.81,10.81,0,0,0,373,238.28L287.72,225.1A11.72,11.72,0,0,0,286.06,225Z" style="fill:#407BFF"></path><path d="M367,288.82a11.24,11.24,0,0,1-1.82-.14l-85.24-13.17a11.83,11.83,0,1,1,3.61-23.38l85.25,13.17a11.83,11.83,0,0,1-1.8,23.52ZM281.71,253a10.83,10.83,0,0,0-1.63,21.53l85.25,13.18a10.83,10.83,0,0,0,3.3-21.41l-85.24-13.17A10.56,10.56,0,0,0,281.71,253Z" style="fill:#407BFF"></path><path d="M362.68,316.84a12.77,12.77,0,0,1-1.84-.14L275.6,303.52a11.83,11.83,0,0,1,3.61-23.38l85.25,13.17a11.85,11.85,0,0,1,9.88,13.5l-.49-.07.49.07a11.84,11.84,0,0,1-11.66,10ZM277.4,281a10.83,10.83,0,0,0-1.65,21.54L361,315.71a10.83,10.83,0,0,0,12.35-9h0a10.83,10.83,0,0,0-9.05-12.36l-85.24-13.17A10.41,10.41,0,0,0,277.4,281Z" style="fill:#407BFF"></path><path d="M377.74,216.76a3.52,3.52,0,0,1-.64,0l-42.64-6.59a4.16,4.16,0,0,1-3.48-4.75,4.18,4.18,0,0,1,4.76-3.49l42.64,6.6a4.09,4.09,0,0,1,2.72,1.65,4.14,4.14,0,0,1,.76,3.1h0A4.17,4.17,0,0,1,377.74,216.76ZM335.1,202.84a3.17,3.17,0,0,0-.49,6.3l42.65,6.59a3.18,3.18,0,0,0,2.35-.58,3.13,3.13,0,0,0,1.26-2.07h0a3.16,3.16,0,0,0-2.64-3.62l-42.65-6.59A3.87,3.87,0,0,0,335.1,202.84Z" style="fill:#263238"></path><path d="M375.88,228.82a4.72,4.72,0,0,1-.64,0l-60.59-9.36a4.17,4.17,0,0,1,1.28-8.24l60.58,9.36a4.18,4.18,0,0,1,3.49,4.76h0A4.17,4.17,0,0,1,375.88,228.82Zm-60.6-16.7a3.17,3.17,0,0,0-2.55,5,3.17,3.17,0,0,0,2.08,1.26l60.58,9.36a3.17,3.17,0,1,0,1-6.26l-60.59-9.36A2.7,2.7,0,0,0,315.28,212.12Z" style="fill:#263238"></path><circle cx="308.8" cy="153.31" r="13.67" transform="translate(-12.89 277.31) rotate(-47.48)" style="fill:#407BFF"></circle></g><g style="opacity:0.9"><path d="M299.34,337.81,305,127.37a9.36,9.36,0,0,0-9.1-9.59L196.2,115.1a9.35,9.35,0,0,0-9.6,9.09L181,334.63a9.36,9.36,0,0,0,9.1,9.6l99.69,2.68A9.36,9.36,0,0,0,299.34,337.81Z" style="fill:#407BFF"></path><path d="M299.34,337.81,305,127.37a9.36,9.36,0,0,0-9.1-9.59L196.2,115.1a9.35,9.35,0,0,0-9.6,9.09L181,334.63a9.36,9.36,0,0,0,9.1,9.6l99.69,2.68A9.36,9.36,0,0,0,299.34,337.81Z" style="opacity:0.1"></path><rect x="211.47" y="210.86" width="61.15" height="108.91" rx="9.06" transform="translate(513.77 30.48) rotate(91.54)" style="fill:#263238;opacity:0.2"></rect><path d="M263.8,322.62a11.73,11.73,0,1,0,12-11.42A11.72,11.72,0,0,0,263.8,322.62Z" style="fill:#fff"></path><circle cx="205.53" cy="321.05" r="11.73" transform="translate(-164.5 229.4) rotate(-43.46)" style="fill:#fff"></circle><path d="M228.8,321.68a11.73,11.73,0,1,0,12-11.42A11.72,11.72,0,0,0,228.8,321.68Z" style="fill:#fff"></path><path d="M299.59,151.25h0a11.32,11.32,0,0,0-11-11.63l-86.23-2.32a11.33,11.33,0,0,0-11.63,11h0a11.33,11.33,0,0,0,11,11.63L288,162.27A11.33,11.33,0,0,0,299.59,151.25Z" style="fill:#fff"></path><path d="M298.77,181.71h0a11.33,11.33,0,0,0-11-11.63l-86.22-2.32a11.33,11.33,0,0,0-11.63,11h0a11.33,11.33,0,0,0,11,11.63l86.22,2.31A11.33,11.33,0,0,0,298.77,181.71Z" style="fill:#fff"></path><path d="M298,212.17h0a11.32,11.32,0,0,0-11-11.63l-86.22-2.32a11.34,11.34,0,0,0-11.63,11h0a11.33,11.33,0,0,0,11,11.63l86.22,2.31A11.33,11.33,0,0,0,298,212.17Z" style="fill:#fff"></path></g></g><g id="freepik--Character--inject-181"><path d="M113.69,163.14l-1.18,1.34-1.25,1.45-2.46,3c-1.6,2-3.18,4-4.63,6.1a64.75,64.75,0,0,0-7.31,12.67,32.9,32.9,0,0,0-1.1,3.15,17,17,0,0,0-.58,2.89,39.24,39.24,0,0,0-.05,7,131.9,131.9,0,0,0,2.27,15.38l-6.49,2.63A62.23,62.23,0,0,1,87.06,211a61,61,0,0,1-2.79-8.35,41.27,41.27,0,0,1-1.36-9.3,24.51,24.51,0,0,1,.39-5.25,43.77,43.77,0,0,1,1.18-4.74,67.32,67.32,0,0,1,8-16.25c1.63-2.45,3.33-4.82,5.15-7.08q1.35-1.71,2.79-3.35c.48-.55,1-1.1,1.46-1.64s1-1,1.6-1.67Z" style="fill:#263238"></path><path d="M98.52,216.23l2.7,2.45-9.49,5a11,11,0,0,1-1-2.53,4.9,4.9,0,0,1,3.71-5.93h0A4.59,4.59,0,0,1,98.52,216.23Z" style="fill:#ffb573"></path><polygon points="104.86 224.83 96.84 228.59 91.73 223.66 101.22 218.68 104.86 224.83" style="fill:#ffb573"></polygon><path d="M139.5,126.51c0,.67.28,1.22.71,1.22s.82-.52.86-1.18-.27-1.22-.71-1.22S139.54,125.85,139.5,126.51Z" style="fill:#263238"></path><path d="M139.72,127.72a22.67,22.67,0,0,0,2.82,5.76,3.86,3.86,0,0,1-3.21.53Z" style="fill:#ff5652"></path><path d="M137.31,122.77a.38.38,0,0,0,.29-.06,3.1,3.1,0,0,1,2.81-.45.41.41,0,0,0,.52-.22.38.38,0,0,0-.19-.51,4,4,0,0,0-3.55.54.39.39,0,0,0-.13.54A.38.38,0,0,0,137.31,122.77Z" style="fill:#263238"></path><path d="M120.26,129.05c.8,6.14,1.07,18.53-3.41,22,0,0,1.46,5,12.67,6.41,12.33,1.53,6.29-5.34,6.29-5.34-6.63-2.44-6.14-7.37-4.66-11.88Z" style="fill:#ffb573"></path><path d="M90.45,399.1l.08,0a.85.85,0,0,0,.5-.8.87.87,0,0,0-.26-.71c-.85-.86-3.62-.69-3.73-.68a.2.2,0,0,0-.18.12.2.2,0,0,0,0,.21C87.48,397.81,89.43,399.38,90.45,399.1Zm-2.93-1.84c.93,0,2.46.08,3,.59a.5.5,0,0,1,.15.41c0,.37-.19.43-.24.45C89.85,398.93,88.44,398.07,87.52,397.26Z" style="fill:#407BFF"></path><path d="M88.43,397.06c1-.26,2.06-.76,2.29-1.32a.61.61,0,0,0-.23-.76,1.08,1.08,0,0,0-.84-.22c-1.23.18-2.7,2.12-2.76,2.21a.18.18,0,0,0,0,.2.21.21,0,0,0,.16.11A5.23,5.23,0,0,0,88.43,397.06Zm1.12-1.88.14,0a.66.66,0,0,1,.54.13c.2.16.15.27.13.32-.21.52-1.84,1.15-2.9,1.27A5.45,5.45,0,0,1,89.55,395.18Z" style="fill:#407BFF"></path><path d="M140.79,408.24a3.42,3.42,0,0,0,2.45-.62.74.74,0,0,0,0-.86.91.91,0,0,0-.6-.45c-1.36-.38-4.31,1.26-4.43,1.33a.24.24,0,0,0-.11.21.19.19,0,0,0,.15.16A14.86,14.86,0,0,0,140.79,408.24Zm1.38-1.6a1.45,1.45,0,0,1,.37,0,.54.54,0,0,1,.37.28c.13.24.08.36,0,.43-.41.53-2.5.54-4,.33A9,9,0,0,1,142.17,406.64Z" style="fill:#407BFF"></path><path d="M138.31,408l.08,0c1-.44,3.06-2.23,3-3.16,0-.22-.17-.49-.71-.55a1.52,1.52,0,0,0-1.1.34c-1.08.86-1.39,3.08-1.41,3.18a.2.2,0,0,0,.08.17A.15.15,0,0,0,138.31,408Zm2.15-3.35h.12c.35,0,.36.18.37.22.07.56-1.33,2-2.37,2.57a4.75,4.75,0,0,1,1.19-2.54A1.1,1.1,0,0,1,140.46,404.66Z" style="fill:#407BFF"></path><polygon points="129.25 407.81 137.5 407.81 139.09 388.71 130.84 388.71 129.25 407.81" style="fill:#ffb573"></polygon><polygon points="77.76 396.78 85.61 398.31 92.85 379.63 85 378.1 77.76 396.78" style="fill:#ffb573"></polygon><path d="M87.05,395.94l-7.76-4.76a.73.73,0,0,0-.9.13L73,396.76a1.2,1.2,0,0,0,.2,1.88c2.74,1.61,4.16,2.26,7.57,4.35,2.1,1.29,6.42,4.75,9.55,6.12s5-1.59,3.87-2.44c-5.14-3.79-5.61-7-6.31-9.6A1.91,1.91,0,0,0,87.05,395.94Z" style="fill:#263238"></path><path d="M137.48,406.86h-9a.74.74,0,0,0-.72.56l-1.93,7.34a1.14,1.14,0,0,0,1.13,1.46c3.25-.05,8-.24,12-.24,4.77,0,5.55.26,11.15.26,3.39,0,4.46-3.43,3.06-3.74-6.4-1.41-8.32-1.56-13.76-5A3.72,3.72,0,0,0,137.48,406.86Z" style="fill:#263238"></path><path d="M149.36,179.64c-.12,2.8-.31,5.89-.61,9.3-.78,9.25-2.25,20.78-4.77,35.11H99.86c0-6.26,4.76-35,1.33-64.53a7.69,7.69,0,0,1,6.64-8.41c2.24-.29,4.75-.54,7.21-.66a162.94,162.94,0,0,1,18.76,0A75.68,75.68,0,0,1,142,151.7a8.1,8.1,0,0,1,6.31,6.31C149.1,162,149.81,168.66,149.36,179.64Z" style="fill:#263238"></path><path d="M140.41,224.18h0a.13.13,0,0,1-.1-.15c2.31-13.19,3.92-25,4.77-35.1.28-3.22.48-6.35.6-9.3.47-11.36-.34-18-1.1-21.6a.12.12,0,0,1,.1-.14.12.12,0,0,1,.15.09c1.09,5.15,1.47,12.65,1.1,21.66-.12,3-.32,6.09-.6,9.31-.85,10.1-2.46,21.92-4.78,35.12A.12.12,0,0,1,140.41,224.18Z" style="opacity:0.30000000000000004"></path><path d="M141.54,172.92c-.11,6.23,3.1,20.22,6.12,26.61.46-3.83.83-7.35,1.1-10.59.23-2.77.4-5.32.52-7.68Z" style="opacity:0.2"></path><path d="M177.48,188.16l7.37-4.38,1.34,10.08s-5.84,1.63-9.11-.34Z" style="fill:#ffb573"></path><polygon points="194.54 184.5 192.11 192.55 186.19 193.86 184.85 183.78 194.54 184.5" style="fill:#ffb573"></polygon><path d="M147.12,156c.38.88.63,1.52.88,2.18s.48,1.28.7,1.89l1.28,3.64c.84,2.39,1.65,4.74,2.51,7s1.72,4.58,2.67,6.73a47.11,47.11,0,0,0,3,5.95,17.23,17.23,0,0,0,1.5,2.13c.21.26.4.44.48.53s.06.07,0,.07,0,0,.06,0l.15.09a7.31,7.31,0,0,0,2,.67,21.2,21.2,0,0,0,3,.29,80.25,80.25,0,0,0,14.06-1.38l.24,0a3.54,3.54,0,0,1,2.44,6.5,41.21,41.21,0,0,1-3.66,2.07c-1.23.63-2.49,1.2-3.79,1.72a40.25,40.25,0,0,1-8.3,2.44,25.6,25.6,0,0,1-4.75.42,18.32,18.32,0,0,1-5.5-.78l-.75-.26a5.39,5.39,0,0,1-.82-.33,12.58,12.58,0,0,1-1.64-.91,16.77,16.77,0,0,1-2.46-2,26.45,26.45,0,0,1-3.33-3.88,75.42,75.42,0,0,1-7.79-15c-1-2.49-1.94-5-2.8-7.44l-1.26-3.65-.6-1.74c-.18-.54-.39-1.11-.51-1.41l-.07-.2a7.06,7.06,0,0,1,13-5.43Z" style="fill:#263238"></path><polygon points="139.09 388.71 138.27 398.56 130.02 398.56 130.84 388.71 139.09 388.71" style="opacity:0.2"></polygon><polygon points="85 378.11 92.85 379.64 89.11 389.26 81.26 387.73 85 378.11" style="opacity:0.2"></polygon><path d="M117.42,124.64c0,8.18-.42,13,3.44,17.27,5.82,6.43,16.13,2.9,18.57-5.21,2.21-7.31,1.84-19.46-6-22.88S117.42,116.46,117.42,124.64Z" style="fill:#ffb573"></path><path d="M135.91,128.75c.7-1.92,3.5-10.17-1.69-12.75s-12-3.37-16.23-1.54-7.3,8.54-7.3,8.54,2,14.13,10.24,16.67S138.51,132.42,135.91,128.75Z" style="fill:#263238"></path><path d="M133.91,117.06a8.38,8.38,0,0,0,2.47-1.28c3-2.91-2.31-4.86-7.57-5.34-6-.53-14.48,1.84-17.87,6.23C114.15,118.32,129.33,118.39,133.91,117.06Z" style="fill:#263238"></path><path d="M133.42,116.24a6.84,6.84,0,0,0,2.32-.42c4-2-.61-4.63-4.73-6.39-4.67-2-12.18-2.23-16.06.53C117.12,112.16,129.37,116.16,133.42,116.24Z" style="fill:#263238"></path><path d="M132.32,127.62a8,8,0,0,0,1.73,4.95c1.49,1.81,3.24.76,3.67-1.39.39-1.94.09-5.22-1.81-6.25S132.34,125.42,132.32,127.62Z" style="fill:#ffb573"></path><path d="M128.33,224.05s1.36,62.43-7,85.45C108.21,346,93.92,388.28,93.92,388.28l-15.06-3.35S91,338.88,97.59,308.17c6-27.6,1.36-61.58,2.27-84.12Z" style="fill:#407BFF"></path><g style="opacity:0.30000000000000004"><path d="M128.33,224.05s1.36,62.43-7,85.45C108.21,346,93.92,388.28,93.92,388.28l-15.06-3.35S91,338.88,97.59,308.17c6-27.6,1.36-61.58,2.27-84.12Z" style="fill:#fff"></path></g><path d="M128.4,238c-4.11-1.21-7.38-.75-8.37,2.95-2.59,9.67,3,35.18,5.79,46.85C127.83,271,128.33,251,128.4,238Z" style="opacity:0.2"></path><path d="M98,383.71c.07,0-3.73,4.89-3.73,4.89L77.8,384.94l1.88-5.65Z" style="fill:#407BFF"></path><path d="M144,224.05s9.16,52.46,9,77.62c-.17,28.21-11.59,95-11.59,95h-14s1.76-67.12,2.18-92.82c.46-28-14.65-79.78-14.65-79.78Z" style="fill:#407BFF"></path><g style="opacity:0.30000000000000004"><path d="M144,224.05s9.16,52.46,9,77.62c-.17,28.21-11.59,95-11.59,95h-14s1.76-67.12,2.18-92.82c.46-28-14.65-79.78-14.65-79.78Z" style="fill:#fff"></path></g><path d="M144.34,391.09c.06,0-1,5.8-1,5.8h-17l-.25-5.18Z" style="fill:#407BFF"></path><path d="M128.27,242a.22.22,0,0,1-.13,0l-5.82-3.43a.28.28,0,0,1-.12-.19L121,229a.25.25,0,0,1,.06-.2.26.26,0,0,1,.19-.08h11.16a.24.24,0,0,1,.25.22l1.07,9.08a.26.26,0,0,1-.11.24l-5.22,3.66A.24.24,0,0,1,128.27,242Zm-5.59-3.84,5.58,3.29,5-3.49-1-8.71H121.54Z" style="fill:#fff"></path></g></svg>
