<svg xmlns="http://www.w3.org/2000/svg" viewBox="0 0 500 500"><g id="freepik--background-complete--inject-440"><rect x="416.78" y="398.49" width="33.12" height="0.25" style="fill:#ebebeb"></rect><rect x="322.53" y="401.21" width="8.69" height="0.25" style="fill:#ebebeb"></rect><rect x="396.59" y="389.21" width="19.19" height="0.25" style="fill:#ebebeb"></rect><rect x="52.46" y="390.89" width="43.19" height="0.25" style="fill:#ebebeb"></rect><rect x="104.56" y="390.89" width="6.33" height="0.25" style="fill:#ebebeb"></rect><rect x="131.47" y="395.11" width="93.68" height="0.25" style="fill:#ebebeb"></rect><path d="M238.4,337.8H45.3a5.71,5.71,0,0,1-5.71-5.71V60.66A5.71,5.71,0,0,1,45.3,55H238.4a5.71,5.71,0,0,1,5.71,5.71V332.09A5.71,5.71,0,0,1,238.4,337.8ZM45.3,55.2a5.47,5.47,0,0,0-5.46,5.46V332.09a5.47,5.47,0,0,0,5.46,5.46H238.4a5.47,5.47,0,0,0,5.46-5.46V60.66a5.47,5.47,0,0,0-5.46-5.46Z" style="fill:#ebebeb"></path><path d="M454.7,337.8H261.6a5.71,5.71,0,0,1-5.71-5.71V60.66A5.71,5.71,0,0,1,261.6,55H454.7a5.71,5.71,0,0,1,5.71,5.71V332.09A5.71,5.71,0,0,1,454.7,337.8ZM261.6,55.2a5.47,5.47,0,0,0-5.46,5.46V332.09a5.47,5.47,0,0,0,5.46,5.46H454.7a5.47,5.47,0,0,0,5.46-5.46V60.66a5.47,5.47,0,0,0-5.46-5.46Z" style="fill:#ebebeb"></path><rect y="382.4" width="500" height="0.25" style="fill:#ebebeb"></rect><polygon points="81.44 116.51 124.27 91.59 157.27 91.59 200.81 115.33 200.81 334.81 81.44 334.81 81.44 116.51" style="fill:#e0e0e0"></polygon><path d="M96.64,164.77c-1.26,3.48-1,6.29.48,6.29s3.79-2.81,5.06-6.29,1-6.29-.48-6.29S97.91,161.3,96.64,164.77Z" style="fill:#fff"></path><path d="M81.51,227.55c-1.11,3-.92,5.52.42,5.52s3.33-2.47,4.44-5.52S87.29,222,86,222,82.62,224.5,81.51,227.55Z" style="fill:#fff"></path><path d="M78.1,201.56c-.32.87-.27,1.57.12,1.57s.94-.7,1.26-1.57.26-1.57-.12-1.57S78.41,200.69,78.1,201.56Z" style="fill:#fff"></path><path d="M103.7,129.3c-.31.87-.26,1.58.12,1.58s1-.71,1.27-1.58.26-1.57-.12-1.57S104,128.44,103.7,129.3Z" style="fill:#fff"></path><path d="M132.34,180.05c1.26-3.47,1-6.28-.48-6.28s-3.79,2.81-5.06,6.28-1,6.29.48,6.29S131.07,183.53,132.34,180.05Z" style="fill:#fff"></path><path d="M177,148c.63-1.73.53-3.14-.24-3.14s-1.89,1.41-2.52,3.14-.53,3.15.23,3.15S176.33,149.72,177,148Z" style="fill:#fff"></path><path d="M147.47,117.28c1.11-3,.92-5.52-.42-5.52s-3.33,2.47-4.44,5.52-.93,5.52.42,5.52S146.36,120.33,147.47,117.28Z" style="fill:#fff"></path><path d="M164.62,189.49c.63-1.74.53-3.15-.24-3.15s-1.89,1.41-2.52,3.15-.53,3.14.23,3.14S164,191.22,164.62,189.49Z" style="fill:#fff"></path><path d="M199.93,152.53c.64-1.73.53-3.14-.23-3.14s-1.9,1.41-2.53,3.14-.53,3.15.24,3.15S199.3,154.27,199.93,152.53Z" style="fill:#fff"></path><path d="M136.05,247.78c-1.27,3.48-1.05,6.29.47,6.29s3.8-2.81,5.06-6.29,1-6.28-.48-6.28S137.31,244.31,136.05,247.78Z" style="fill:#fff"></path><path d="M91.42,279.86c-.63,1.73-.53,3.14.24,3.14s1.89-1.41,2.53-3.14.52-3.15-.24-3.15S92.05,278.12,91.42,279.86Z" style="fill:#fff"></path><path d="M120.92,310.56c-1.11,3.05-.93,5.52.42,5.52s3.33-2.47,4.44-5.52.92-5.52-.42-5.52S122,307.51,120.92,310.56Z" style="fill:#fff"></path><path d="M103.76,238.35c-.63,1.74-.53,3.15.24,3.15s1.89-1.41,2.53-3.15.52-3.14-.24-3.14S104.39,236.61,103.76,238.35Z" style="fill:#fff"></path><path d="M184.32,169.74c-1.11,3-.93,5.52.42,5.52s3.33-2.47,4.44-5.52.92-5.52-.42-5.52S185.43,166.69,184.32,169.74Z" style="fill:#fff"></path><path d="M194.22,222.05c-.63,1.74-.52,3.15.24,3.15s1.9-1.41,2.53-3.15.52-3.14-.24-3.14S194.85,220.32,194.22,222.05Z" style="fill:#fff"></path><path d="M117.5,284.57c-.32.87-.26,1.58.12,1.58s.95-.71,1.26-1.58.27-1.57-.12-1.57S117.82,283.71,117.5,284.57Z" style="fill:#fff"></path><path d="M170.8,310.56c-.31.87-.26,1.57.12,1.57s1-.7,1.27-1.57.26-1.57-.12-1.57S171.12,309.69,170.8,310.56Z" style="fill:#fff"></path><path d="M171.74,263.07c1.26-3.48,1-6.29-.48-6.29s-3.79,2.81-5.06,6.29-1,6.29.48,6.29S170.47,266.54,171.74,263.07Z" style="fill:#fff"></path><path d="M204,272.5c.63-1.74.52-3.14-.24-3.14s-1.9,1.4-2.53,3.14-.53,3.14.24,3.14S203.39,274.24,204,272.5Z" style="fill:#fff"></path><path d="M150.88,143.27c.32-.87.26-1.58-.12-1.58s-.95.71-1.26,1.58-.26,1.57.12,1.57S150.57,144.13,150.88,143.27Z" style="fill:#fff"></path><path d="M202,334.82H81.44V116.51l1.23-1.18a84.83,84.83,0,0,1,59.07-23.74h0a84.8,84.8,0,0,1,59.07,23.74l1.23,1.18Zm-112.6-8H194V119.94a77.38,77.38,0,0,0-104.6,0Z" style="fill:#fafafa"></path><polygon points="195.56 155.37 195.56 149.37 144.74 149.37 144.74 98.55 138.74 98.55 138.74 149.37 87.93 149.37 87.93 155.37 138.74 155.37 138.74 210.19 87.93 210.19 87.93 216.19 138.74 216.19 138.74 271 87.93 271 87.93 277 138.74 277 138.74 327.82 144.74 327.82 144.74 277 195.56 277 195.56 271 144.74 271 144.74 216.19 195.56 216.19 195.56 210.19 144.74 210.19 144.74 155.37 195.56 155.37" style="fill:#f5f5f5"></polygon><path d="M206,338.82H77.44V114.87l1.17-1.17a89.38,89.38,0,0,1,126.26,0l1.17,1.17Zm-120.6-8H198V118.21a81.37,81.37,0,0,0-112.6,0Z" style="fill:#f5f5f5"></path><polygon points="358.29 373.13 332.68 373.13 334.03 308.49 356.94 308.49 358.29 373.13" style="fill:#f0f0f0"></polygon><path d="M333.43,337.49a67.53,67.53,0,0,0,12-6.52,67,67,0,0,0,12.12,6.56l-.6-29H334Z" style="fill:#e0e0e0"></path><rect x="328.27" y="355.48" width="34.43" height="6.95" style="fill:#e0e0e0"></rect><path d="M365.4,356.37H325.57a2.49,2.49,0,0,1-2.5-2.49h0a2.5,2.5,0,0,1,2.5-2.5H365.4a2.5,2.5,0,0,1,2.5,2.5h0A2.49,2.49,0,0,1,365.4,356.37Z" style="fill:#e6e6e6"></path><path d="M360.93,382.4H330c-3.06,0-5.5-2-5.34-4.33l.95-14.64c.08-1.36,1.54-2.42,3.3-2.42H362c1.76,0,3.22,1.06,3.3,2.42l.95,14.64C366.42,380.42,364,382.4,360.93,382.4Z" style="fill:#e6e6e6"></path><path d="M245.5,308.41c2.68,5.71,27.66-1.36,27.66-1.36s1.91,17.13,6.69,18.6c5.81,1.79,25.6-11.11,25.6-11.11S317.7,331.47,323.71,332s19.8-14.38,19.8-14.38,13.79,14.86,19.8,14.38,18.26-17.41,18.26-17.41,19.8,12.9,25.61,11.11c4.78-1.47,6.68-18.6,6.68-18.6s24.73,7.16,27.66,1.36c10-19.77-40-41.32-51.11-48.74-16.84-11.24-42.05-38.75-46.9-38.75-6,0-30.06,27.51-46.9,38.75C284.24,267.92,236.19,288.54,245.5,308.41Z" style="fill:#f0f0f0"></path><path d="M390.41,259.67c-16.84-11.24-42.06-38.75-46.9-38.75-6,0-30.06,27.51-46.9,38.75-.71.47-1.54,1-2.47,1.54,1.81,3.24,3.89,5.89,6.1,6.86C304.66,270,311,267,315.8,263.83c4.13,5.31,9.12,10.43,13.32,10.91s9.76-3.42,14.41-7.76c4.39,4.09,9.51,7.8,13.67,7.8.25,0,.5,0,.74,0,4.2-.48,9.19-5.6,13.32-10.91,4.85,3.17,11.14,6.18,15.56,4.24,2.21-1,4.28-3.62,6.1-6.85C392,260.65,391.1,260.13,390.41,259.67Z" style="fill:#e0e0e0"></path><path d="M274.79,251.1c1.88,5.72,19.4-1.35,19.4-1.35s4.56,12.43,7.91,13.9c4.08,1.79,14.74-6.42,14.74-6.42s8.59,12.24,12.8,12.72,13.89-9.68,13.89-9.68,9.67,10.16,13.89,9.68,12.8-12.72,12.8-12.72,10.66,8.21,14.74,6.42c3.35-1.47,7.91-13.9,7.91-13.9s17.35,7.16,19.4,1.35c7-19.77-28-41.31-35.85-48.74-11.81-11.23-29.49-38.75-32.89-38.75-4.18,0-21.08,27.52-32.89,38.75C302,210.62,268.26,231.24,274.79,251.1Z" style="fill:#f0f0f0"></path><path d="M376.42,202.36c-11.81-11.23-29.49-38.75-32.89-38.75-4.18,0-21.08,27.52-32.89,38.75-.74.7-1.67,1.5-2.73,2.38,1.29,3,2.95,5.84,4.89,6.87,3.27,1.75,7.45-.17,11.16-2.93,5.37,8.18,8.31,8.59,9.36,8.73a5.63,5.63,0,0,0,.84.07c1.53,0,4.48-.73,9.41-6.1l.84.88c3.87,4,6.67,5.52,9.35,5.15,1.06-.14,4-.55,9.36-8.73,3.72,2.76,7.9,4.68,11.17,2.93.7-.38,2.49-1.34,4.88-6.89C378.07,203.83,377.13,203,376.42,202.36Z" style="fill:#e0e0e0"></path><path d="M295.65,197.28c1.31,4.86,13.51-1.15,13.51-1.15s3.18,10.58,5.52,11.83c2.84,1.52,10.26-5.47,10.26-5.47s6,10.43,8.93,10.83,9.67-8.24,9.67-8.24,6.74,8.65,9.68,8.24,8.92-10.83,8.92-10.83,7.43,7,10.27,5.47c2.33-1.25,5.51-11.83,5.51-11.83s12.09,6.09,13.52,1.15c4.87-16.83-19.54-35.17-25-41.49-8.23-9.57-20.55-33-22.92-33-2.91,0-14.69,23.42-22.92,33C314.58,162.81,291.1,180.37,295.65,197.28Z" style="fill:#f0f0f0"></path><path d="M356.86,150.68c2.36,1.7,5,2.87,7.15,2-8-10.73-18.33-29.91-20.47-29.91-2.63,0-12.52,19.17-20.47,29.9,2.18.86,4.8-.31,7.17-2,3.61,5.39,5.63,5.67,6.36,5.78s2.89.4,6.95-3.92c3.28,3.48,5.29,4,6.35,4a4.47,4.47,0,0,0,.6,0C351.23,156.35,353.26,156.07,356.86,150.68Z" style="fill:#e0e0e0"></path><path d="M311.18,142.54c.88,3.29,9.13-.78,9.13-.78s2.15,7.16,3.73,8c1.92,1,6.94-3.69,6.94-3.69s4,7,6,7.32,6.54-5.57,6.54-5.57,4.56,5.85,6.54,5.57,6-7.32,6-7.32,5,4.72,6.94,3.69c1.58-.84,3.73-8,3.73-8s8.17,4.12,9.14.78c3.29-11.37-13.21-23.77-16.89-28-5.56-6.47-13.89-22.3-15.49-22.3-2,0-9.93,15.83-15.49,22.3C324,119.25,308.1,131.11,311.18,142.54Z" style="fill:#f0f0f0"></path><path d="M335.15,215.92a1.33,1.33,0,1,0,1.31,1.33A1.32,1.32,0,0,0,335.15,215.92Zm0,2.42a1.09,1.09,0,1,1,1.07-1.09A1.08,1.08,0,0,1,335.15,218.34Z" style="fill:#e0e0e0"></path><path d="M334,218.58h2.33a1.77,1.77,0,0,1,1.77,1.77v4.22a0,0,0,0,1,0,0h-5.88a0,0,0,0,1,0,0v-4.22A1.77,1.77,0,0,1,334,218.58Z" style="fill:#e0e0e0"></path><ellipse cx="335.15" cy="229.13" rx="8.54" ry="8.72" style="fill:#fafafa"></ellipse><path d="M340.15,223.86a1.42,1.42,0,1,1-1.42-1.45A1.44,1.44,0,0,1,340.15,223.86Z" style="fill:#e6e6e6"></path><path d="M341.38,226.75a.7.7,0,1,1-.69-.71A.7.7,0,0,1,341.38,226.75Z" style="fill:#e6e6e6"></path><path d="M353.51,155a1.34,1.34,0,1,0,1.3,1.33A1.33,1.33,0,0,0,353.51,155Zm0,2.43a1.1,1.1,0,1,1,1.07-1.1A1.08,1.08,0,0,1,353.51,157.47Z" style="fill:#e0e0e0"></path><path d="M352.34,157.71h2.33a1.77,1.77,0,0,1,1.77,1.77v4.22a0,0,0,0,1,0,0h-5.88a0,0,0,0,1,0,0v-4.22A1.77,1.77,0,0,1,352.34,157.71Z" style="fill:#e0e0e0"></path><ellipse cx="353.51" cy="168.25" rx="8.54" ry="8.72" style="fill:#fafafa"></ellipse><path d="M358.5,163a1.42,1.42,0,1,1-1.41-1.44A1.43,1.43,0,0,1,358.5,163Z" style="fill:#e6e6e6"></path><path d="M359.74,165.87a.7.7,0,1,1-.7-.71A.71.71,0,0,1,359.74,165.87Z" style="fill:#e6e6e6"></path><path d="M294.14,278.21a1.34,1.34,0,1,0,1.3,1.34A1.32,1.32,0,0,0,294.14,278.21Zm0,2.43a1.09,1.09,0,1,1,1.06-1.09A1.08,1.08,0,0,1,294.14,280.64Z" style="fill:#e0e0e0"></path><path d="M293,280.88h2.33a1.77,1.77,0,0,1,1.77,1.77v4.22a0,0,0,0,1,0,0H291.2a0,0,0,0,1,0,0v-4.22A1.77,1.77,0,0,1,293,280.88Z" style="fill:#e0e0e0"></path><ellipse cx="294.14" cy="291.42" rx="8.54" ry="8.72" style="fill:#fafafa"></ellipse><path d="M299.13,286.16a1.42,1.42,0,1,1-1.42-1.45A1.43,1.43,0,0,1,299.13,286.16Z" style="fill:#e6e6e6"></path><path d="M300.37,289.05a.7.7,0,1,1-.7-.72A.7.7,0,0,1,300.37,289.05Z" style="fill:#e6e6e6"></path><path d="M355.67,279.43a1.33,1.33,0,1,0,1.3,1.33A1.32,1.32,0,0,0,355.67,279.43Zm0,2.42a1.09,1.09,0,1,1,1.07-1.09A1.08,1.08,0,0,1,355.67,281.85Z" style="fill:#e0e0e0"></path><path d="M354.5,282.09h2.33a1.77,1.77,0,0,1,1.77,1.77v4.22a0,0,0,0,1,0,0h-5.88a0,0,0,0,1,0,0v-4.22A1.77,1.77,0,0,1,354.5,282.09Z" style="fill:#e0e0e0"></path><ellipse cx="355.67" cy="292.64" rx="8.54" ry="8.72" style="fill:#fafafa"></ellipse><path d="M360.66,287.37a1.42,1.42,0,1,1-1.41-1.45A1.43,1.43,0,0,1,360.66,287.37Z" style="fill:#e6e6e6"></path><path d="M361.9,290.26a.7.7,0,1,1-1.4,0,.7.7,0,1,1,1.4,0Z" style="fill:#e6e6e6"></path><path d="M428.45,285.59a1.33,1.33,0,1,0,1.31,1.33A1.32,1.32,0,0,0,428.45,285.59Zm0,2.42a1.09,1.09,0,1,1,1.07-1.09A1.08,1.08,0,0,1,428.45,288Z" style="fill:#e0e0e0"></path><path d="M427.29,288.25h2.33a1.77,1.77,0,0,1,1.77,1.77v4.22a0,0,0,0,1,0,0h-5.88a0,0,0,0,1,0,0V290A1.77,1.77,0,0,1,427.29,288.25Z" style="fill:#e0e0e0"></path><ellipse cx="428.45" cy="298.8" rx="8.54" ry="8.72" style="fill:#fafafa"></ellipse><path d="M433.45,293.53a1.42,1.42,0,1,1-1.42-1.45A1.44,1.44,0,0,1,433.45,293.53Z" style="fill:#e6e6e6"></path><path d="M434.68,296.42a.7.7,0,1,1-.69-.71A.7.7,0,0,1,434.68,296.42Z" style="fill:#e6e6e6"></path><polygon points="343.57 90.86 335.55 95.17 337.08 86.05 330.58 79.59 339.56 78.26 343.57 69.96 347.58 78.26 356.56 79.59 350.07 86.05 351.6 95.17 343.57 90.86" style="fill:#f5f5f5"></polygon></g><g id="freepik--Shadow--inject-440"><ellipse id="freepik--path--inject-440" cx="250" cy="412.39" rx="193.89" ry="11.32" style="fill:#f5f5f5"></ellipse></g><g id="freepik--musical-notes--inject-440"><path d="M260.12,154.88l-12.66,2.23v11.21a4.87,4.87,0,0,0-3.13-.36c-2.28.4-4.12,1.9-4.12,3.35s1.84,2.3,4.12,1.9,4.13-1.9,4.13-3.35c0,0,0,0,0-.06v-9.2l10.67-1.88V166a4.83,4.83,0,0,0-3.12-.36c-2.28.4-4.13,1.9-4.13,3.35s1.85,2.3,4.13,1.9,4.12-1.9,4.12-3.35V154.88Z" style="fill:#407BFF"></path><path d="M104.75,115.25,93,117.33v10.45a4.43,4.43,0,0,0-2.91-.34c-2.13.37-3.85,1.77-3.85,3.12s1.72,2.14,3.85,1.77,3.84-1.77,3.84-3.13a.11.11,0,0,0,0,0v-8.57l9.95-1.75v6.77a4.58,4.58,0,0,0-2.92-.34c-2.12.38-3.84,1.78-3.84,3.13s1.72,2.14,3.84,1.76,3.85-1.77,3.85-3.12c0,0,0,0,0,0V115.25Z" style="fill:#407BFF"></path><path d="M290.86,135.51l9.5,1.79v-5.5l-11-2.07V150a7.27,7.27,0,0,0-4.69-.54c-3.41.6-6.18,2.85-6.18,5s2.77,3.45,6.18,2.85,6.19-2.86,6.19-5v-.09h0Z" style="fill:#407BFF"></path><path d="M437.31,211.46l5.53,1v-3.2l-6.4-1.2v11.8a4.23,4.23,0,0,0-2.73-.32c-2,.35-3.6,1.66-3.6,2.93s1.62,2,3.6,1.65,3.6-1.66,3.6-2.92v0h0Z" style="fill:#407BFF"></path><path d="M138.46,182.1l4.4.83v-2.55l-5.09-.95v9.38a3.39,3.39,0,0,0-2.17-.25c-1.58.28-2.86,1.32-2.86,2.33s1.28,1.59,2.86,1.31,2.86-1.32,2.86-2.32v0h0Z" style="fill:#407BFF"></path></g><g id="freepik--Snowflakes--inject-440"><path d="M146.43,159.23,144,157.81l1.93-.52a.56.56,0,0,0,.39-.69h0a.56.56,0,0,0-.68-.39l-3,.81-4.85-2.8,4.85-2.8,3,.8a.55.55,0,0,0,.68-.39h0a.56.56,0,0,0-.39-.69l-1.93-.51,2.46-1.43a.56.56,0,0,0,.21-.76h0a.54.54,0,0,0-.76-.2l-2.46,1.42.52-1.93a.55.55,0,0,0-.4-.68h0a.55.55,0,0,0-.68.39l-.81,3-4.85,2.8v-5.6l2.2-2.2a.56.56,0,0,0,0-.79.54.54,0,0,0-.78,0l-1.42,1.41v-2.84a.56.56,0,0,0-.56-.56h0a.56.56,0,0,0-.55.56v2.84l-1.42-1.41a.56.56,0,0,0-.79.79l2.21,2.2v5.6l-4.85-2.8-.81-3a.55.55,0,0,0-.68-.39h0a.55.55,0,0,0-.4.68l.52,1.93-2.47-1.42a.55.55,0,0,0-.76.2h0a.56.56,0,0,0,.21.76l2.46,1.43-1.93.51a.57.57,0,0,0-.4.69h0a.56.56,0,0,0,.69.39l3-.8,4.85,2.8-4.85,2.8-3-.81a.57.57,0,0,0-.69.39h0a.57.57,0,0,0,.4.69l1.93.52-2.46,1.42a.56.56,0,0,0-.21.76h0a.55.55,0,0,0,.76.2l2.47-1.42-.52,1.93a.57.57,0,0,0,.4.69h0a.56.56,0,0,0,.68-.4l.81-3,4.85-2.8v5.6L133.87,163a.56.56,0,0,0,0,.79.57.57,0,0,0,.79,0l1.42-1.42v2.85a.55.55,0,0,0,.55.55h0a.56.56,0,0,0,.56-.55v-2.85l1.42,1.42a.56.56,0,0,0,.78,0,.56.56,0,0,0,0-.79l-2.2-2.21v-5.6L142,158l.81,3a.55.55,0,0,0,.68.4h0a.57.57,0,0,0,.4-.69l-.52-1.93,2.46,1.42a.54.54,0,0,0,.76-.2h0A.56.56,0,0,0,146.43,159.23Z" style="fill:#407BFF"></path><path d="M146.21,159l-2.47-1.42,1.93-.52a.55.55,0,0,0,.4-.68h0a.55.55,0,0,0-.68-.39l-3,.8-4.85-2.8,4.85-2.8,3,.81a.56.56,0,0,0,.68-.4h0a.56.56,0,0,0-.4-.68l-1.93-.52,2.47-1.42a.55.55,0,0,0,.2-.76h0a.56.56,0,0,0-.76-.21l-2.46,1.43.51-1.93a.56.56,0,0,0-.39-.69h0a.55.55,0,0,0-.68.4l-.81,3L137,153v-5.6l2.2-2.21a.56.56,0,0,0,0-.79.57.57,0,0,0-.79,0L137,145.85V143a.56.56,0,0,0-.56-.56h0a.56.56,0,0,0-.56.56v2.85l-1.41-1.42a.57.57,0,0,0-.79,0,.56.56,0,0,0,0,.79l2.2,2.21V153l-4.85-2.8-.8-3a.57.57,0,0,0-.69-.4h0a.56.56,0,0,0-.39.69l.52,1.93L127.17,148a.56.56,0,0,0-.76.21h0a.56.56,0,0,0,.2.76l2.47,1.42-1.93.52a.56.56,0,0,0-.4.68h0a.56.56,0,0,0,.68.4l3-.81,4.85,2.8-4.85,2.8-3-.8a.55.55,0,0,0-.68.39h0a.55.55,0,0,0,.4.68l1.93.52L126.61,159a.58.58,0,0,0-.2.77h0a.55.55,0,0,0,.76.2l2.47-1.42-.52,1.93a.55.55,0,0,0,.39.68h0a.56.56,0,0,0,.69-.39l.8-3,4.85-2.8v5.6l-2.2,2.2a.56.56,0,0,0,.79.79l1.41-1.41V165a.56.56,0,0,0,.56.56h0A.56.56,0,0,0,137,165v-2.84l1.41,1.41a.56.56,0,0,0,.79-.79l-2.2-2.2V155l4.85,2.8.81,3a.54.54,0,0,0,.68.39h0a.55.55,0,0,0,.39-.68l-.51-1.93,2.46,1.42a.55.55,0,0,0,.76-.2h0A.57.57,0,0,0,146.21,159Z" style="fill:#407BFF"></path><path d="M146.21,159l-2.47-1.42,1.93-.52a.55.55,0,0,0,.4-.68h0a.55.55,0,0,0-.68-.39l-3,.8-4.85-2.8,4.85-2.8,3,.81a.56.56,0,0,0,.68-.4h0a.56.56,0,0,0-.4-.68l-1.93-.52,2.47-1.42a.55.55,0,0,0,.2-.76h0a.56.56,0,0,0-.76-.21l-2.46,1.43.51-1.93a.56.56,0,0,0-.39-.69h0a.55.55,0,0,0-.68.4l-.81,3L137,153v-5.6l2.2-2.21a.56.56,0,0,0,0-.79.57.57,0,0,0-.79,0L137,145.85V143a.56.56,0,0,0-.56-.56h0a.56.56,0,0,0-.56.56v2.85l-1.41-1.42a.57.57,0,0,0-.79,0,.56.56,0,0,0,0,.79l2.2,2.21V153l-4.85-2.8-.8-3a.57.57,0,0,0-.69-.4h0a.56.56,0,0,0-.39.69l.52,1.93L127.17,148a.56.56,0,0,0-.76.21h0a.56.56,0,0,0,.2.76l2.47,1.42-1.93.52a.56.56,0,0,0-.4.68h0a.56.56,0,0,0,.68.4l3-.81,4.85,2.8-4.85,2.8-3-.8a.55.55,0,0,0-.68.39h0a.55.55,0,0,0,.4.68l1.93.52L126.61,159a.58.58,0,0,0-.2.77h0a.55.55,0,0,0,.76.2l2.47-1.42-.52,1.93a.55.55,0,0,0,.39.68h0a.56.56,0,0,0,.69-.39l.8-3,4.85-2.8v5.6l-2.2,2.2a.56.56,0,0,0,.79.79l1.41-1.41V165a.56.56,0,0,0,.56.56h0A.56.56,0,0,0,137,165v-2.84l1.41,1.41a.56.56,0,0,0,.79-.79l-2.2-2.2V155l4.85,2.8.81,3a.54.54,0,0,0,.68.39h0a.55.55,0,0,0,.39-.68l-.51-1.93,2.46,1.42a.55.55,0,0,0,.76-.2h0A.57.57,0,0,0,146.21,159Z" style="fill:#fff;opacity:0.6000000000000001"></path><path d="M210.47,108,208,106.57l1.94-.52a.56.56,0,0,0,.39-.68h0a.55.55,0,0,0-.68-.4l-3,.81-4.85-2.8,4.85-2.8,3,.8a.55.55,0,0,0,.68-.39h0a.56.56,0,0,0-.39-.68L208,99.39,210.47,98a.56.56,0,0,0,.2-.77h0a.55.55,0,0,0-.76-.2l-2.46,1.42.51-1.93a.55.55,0,0,0-.39-.68h0a.55.55,0,0,0-.68.39l-.81,3-4.85,2.8v-5.6l2.2-2.2a.56.56,0,1,0-.79-.79l-1.41,1.41V92a.56.56,0,0,0-.56-.56h0a.56.56,0,0,0-.56.56v2.84l-1.41-1.41a.56.56,0,0,0-.79.79l2.2,2.2V102l-4.85-2.8-.8-3a.56.56,0,0,0-.69-.39h0a.56.56,0,0,0-.39.68l.52,1.93L191.43,97a.56.56,0,0,0-.76.2h0a.58.58,0,0,0,.2.77l2.47,1.42-1.93.52a.55.55,0,0,0-.4.68h0a.56.56,0,0,0,.69.39l3-.8,4.85,2.8-4.85,2.8-3-.81a.57.57,0,0,0-.69.4h0a.56.56,0,0,0,.4.68l1.93.52L190.87,108a.56.56,0,0,0-.2.76h0a.56.56,0,0,0,.76.21l2.47-1.43-.52,1.93a.57.57,0,0,0,.39.69h0a.57.57,0,0,0,.69-.4l.8-3,4.85-2.8v5.6l-2.2,2.21a.56.56,0,0,0,0,.79.57.57,0,0,0,.79,0l1.41-1.42V114a.56.56,0,0,0,.56.56h0a.56.56,0,0,0,.56-.56v-2.85l1.41,1.42a.57.57,0,0,0,.79,0,.56.56,0,0,0,0-.79l-2.2-2.21v-5.6l4.85,2.8.81,3a.55.55,0,0,0,.68.4h0a.56.56,0,0,0,.39-.69l-.51-1.93,2.46,1.43a.56.56,0,0,0,.76-.21h0A.54.54,0,0,0,210.47,108Z" style="fill:#407BFF"></path><path d="M210.25,107.77l-2.47-1.43,1.93-.51a.57.57,0,0,0,.4-.69h0a.57.57,0,0,0-.69-.39l-3,.8-4.86-2.8,4.86-2.8,3,.81a.57.57,0,0,0,.69-.39h0a.57.57,0,0,0-.4-.69l-1.93-.52,2.47-1.42a.56.56,0,0,0,.2-.76h0a.55.55,0,0,0-.76-.2l-2.47,1.42.52-1.93a.57.57,0,0,0-.39-.69h0a.57.57,0,0,0-.69.4l-.8,3-4.85,2.8v-5.6l2.2-2.21a.54.54,0,0,0,0-.78.56.56,0,0,0-.79,0L201,94.61V91.76a.56.56,0,0,0-.56-.55h0a.56.56,0,0,0-.56.55v2.85l-1.41-1.41a.56.56,0,0,0-.79,0,.54.54,0,0,0,0,.78l2.2,2.21v5.6L195,99l-.81-3a.55.55,0,0,0-.68-.4h0a.56.56,0,0,0-.39.69l.51,1.93-2.46-1.42a.54.54,0,0,0-.76.2h0a.54.54,0,0,0,.2.76l2.47,1.42-1.94.52a.57.57,0,0,0-.39.69h0a.56.56,0,0,0,.68.39l3-.81,4.85,2.8-4.85,2.8-3-.8a.56.56,0,0,0-.68.39h0a.57.57,0,0,0,.39.69l1.94.51-2.47,1.43a.54.54,0,0,0-.2.76h0a.54.54,0,0,0,.76.2l2.46-1.42-.51,1.93a.54.54,0,0,0,.39.68h0a.55.55,0,0,0,.68-.39l.81-3,4.85-2.8v5.6l-2.2,2.2a.56.56,0,1,0,.79.79l1.41-1.41v2.84a.56.56,0,0,0,.56.56h0a.56.56,0,0,0,.56-.56V110.9l1.41,1.41a.56.56,0,0,0,.79-.79l-2.2-2.2v-5.6l4.85,2.8.8,3a.56.56,0,0,0,.69.39h0a.55.55,0,0,0,.39-.68l-.52-1.93,2.47,1.42a.55.55,0,0,0,.76-.2h0A.56.56,0,0,0,210.25,107.77Z" style="fill:#407BFF"></path><path d="M210.25,107.77l-2.47-1.43,1.93-.51a.57.57,0,0,0,.4-.69h0a.57.57,0,0,0-.69-.39l-3,.8-4.86-2.8,4.86-2.8,3,.81a.57.57,0,0,0,.69-.39h0a.57.57,0,0,0-.4-.69l-1.93-.52,2.47-1.42a.56.56,0,0,0,.2-.76h0a.55.55,0,0,0-.76-.2l-2.47,1.42.52-1.93a.57.57,0,0,0-.39-.69h0a.57.57,0,0,0-.69.4l-.8,3-4.85,2.8v-5.6l2.2-2.21a.54.54,0,0,0,0-.78.56.56,0,0,0-.79,0L201,94.61V91.76a.56.56,0,0,0-.56-.55h0a.56.56,0,0,0-.56.55v2.85l-1.41-1.41a.56.56,0,0,0-.79,0,.54.54,0,0,0,0,.78l2.2,2.21v5.6L195,99l-.81-3a.55.55,0,0,0-.68-.4h0a.56.56,0,0,0-.39.69l.51,1.93-2.46-1.42a.54.54,0,0,0-.76.2h0a.54.54,0,0,0,.2.76l2.47,1.42-1.94.52a.57.57,0,0,0-.39.69h0a.56.56,0,0,0,.68.39l3-.81,4.85,2.8-4.85,2.8-3-.8a.56.56,0,0,0-.68.39h0a.57.57,0,0,0,.39.69l1.94.51-2.47,1.43a.54.54,0,0,0-.2.76h0a.54.54,0,0,0,.76.2l2.46-1.42-.51,1.93a.54.54,0,0,0,.39.68h0a.55.55,0,0,0,.68-.39l.81-3,4.85-2.8v5.6l-2.2,2.2a.56.56,0,1,0,.79.79l1.41-1.41v2.84a.56.56,0,0,0,.56.56h0a.56.56,0,0,0,.56-.56V110.9l1.41,1.41a.56.56,0,0,0,.79-.79l-2.2-2.2v-5.6l4.85,2.8.8,3a.56.56,0,0,0,.69.39h0a.55.55,0,0,0,.39-.68l-.52-1.93,2.47,1.42a.55.55,0,0,0,.76-.2h0A.56.56,0,0,0,210.25,107.77Z" style="fill:#fff;opacity:0.6000000000000001"></path><path d="M440.79,180.78l-2.46-1.42,1.93-.52a.56.56,0,0,0,.39-.69h0a.56.56,0,0,0-.68-.39l-3,.81-4.85-2.8L437,173l3,.8a.55.55,0,0,0,.68-.39h0a.56.56,0,0,0-.39-.69l-1.93-.51,2.46-1.43a.54.54,0,0,0,.2-.76h0a.54.54,0,0,0-.76-.2l-2.46,1.42.52-1.93a.55.55,0,0,0-.4-.68h0a.55.55,0,0,0-.68.39l-.81,3-4.85,2.8v-5.6l2.2-2.2a.56.56,0,1,0-.79-.79l-1.41,1.41v-2.84a.56.56,0,0,0-.56-.56h0a.55.55,0,0,0-.55.56v2.84L429,166.21a.56.56,0,0,0-.79.79l2.21,2.2v5.6l-4.86-2.8-.8-3a.55.55,0,0,0-.68-.39h0a.56.56,0,0,0-.39.68l.52,1.93-2.47-1.42a.55.55,0,0,0-.76.2h0a.56.56,0,0,0,.21.76l2.46,1.43-1.93.51a.57.57,0,0,0-.4.69h0a.56.56,0,0,0,.69.39l3-.8,4.85,2.8-4.85,2.8-3-.81a.57.57,0,0,0-.69.39h0a.57.57,0,0,0,.4.69l1.93.52-2.46,1.42a.56.56,0,0,0-.21.76h0a.55.55,0,0,0,.76.2l2.47-1.42-.52,1.93a.57.57,0,0,0,.39.69h0a.56.56,0,0,0,.68-.4l.8-3,4.86-2.8v5.6l-2.21,2.21a.56.56,0,0,0,0,.79.57.57,0,0,0,.79,0l1.42-1.42v2.85a.55.55,0,0,0,.55.55h0a.56.56,0,0,0,.56-.55v-2.85l1.41,1.42a.57.57,0,0,0,.79,0,.56.56,0,0,0,0-.79l-2.2-2.21v-5.6l4.85,2.8.81,3a.55.55,0,0,0,.68.4h0a.57.57,0,0,0,.4-.69l-.52-1.93,2.46,1.42a.54.54,0,0,0,.76-.2h0A.54.54,0,0,0,440.79,180.78Z" style="fill:#407BFF"></path><path d="M440.57,180.55l-2.47-1.42,1.93-.52a.55.55,0,0,0,.4-.68h0a.55.55,0,0,0-.68-.39l-3,.8-4.85-2.8,4.85-2.8,3,.81a.56.56,0,0,0,.68-.4h0a.56.56,0,0,0-.4-.68L438.1,172l2.47-1.42a.55.55,0,0,0,.2-.76h0a.56.56,0,0,0-.76-.21L437.55,171l.51-1.93a.56.56,0,0,0-.39-.69h0a.57.57,0,0,0-.69.4l-.8,3-4.85,2.8V169l2.2-2.21a.56.56,0,0,0,0-.79.57.57,0,0,0-.79,0l-1.41,1.42v-2.85a.56.56,0,0,0-.56-.56h0a.56.56,0,0,0-.56.56v2.85L428.8,166a.57.57,0,0,0-.79,0,.56.56,0,0,0,0,.79l2.2,2.21v5.6l-4.85-2.8-.8-3a.57.57,0,0,0-.69-.4h0a.56.56,0,0,0-.39.69L424,171l-2.46-1.43a.56.56,0,0,0-.76.21h0a.55.55,0,0,0,.2.76l2.47,1.42-1.93.52a.56.56,0,0,0-.4.68h0a.56.56,0,0,0,.68.4l3-.81,4.85,2.8-4.85,2.8-3-.8a.55.55,0,0,0-.68.39h0a.55.55,0,0,0,.4.68l1.93.52L421,180.55a.57.57,0,0,0-.2.77h0a.55.55,0,0,0,.76.2L424,180.1l-.51,1.93a.55.55,0,0,0,.39.68h0a.56.56,0,0,0,.69-.39l.8-3,4.85-2.8v5.6l-2.2,2.2a.56.56,0,1,0,.79.79l1.41-1.41v2.84a.56.56,0,0,0,.56.56h0a.56.56,0,0,0,.56-.56v-2.84l1.41,1.41a.56.56,0,0,0,.79-.79l-2.2-2.2v-5.6l4.85,2.8.8,3a.56.56,0,0,0,.69.39h0a.55.55,0,0,0,.39-.68l-.51-1.93,2.46,1.42a.55.55,0,0,0,.76-.2h0A.57.57,0,0,0,440.57,180.55Z" style="fill:#407BFF"></path><path d="M440.57,180.55l-2.47-1.42,1.93-.52a.55.55,0,0,0,.4-.68h0a.55.55,0,0,0-.68-.39l-3,.8-4.85-2.8,4.85-2.8,3,.81a.56.56,0,0,0,.68-.4h0a.56.56,0,0,0-.4-.68L438.1,172l2.47-1.42a.55.55,0,0,0,.2-.76h0a.56.56,0,0,0-.76-.21L437.55,171l.51-1.93a.56.56,0,0,0-.39-.69h0a.57.57,0,0,0-.69.4l-.8,3-4.85,2.8V169l2.2-2.21a.56.56,0,0,0,0-.79.57.57,0,0,0-.79,0l-1.41,1.42v-2.85a.56.56,0,0,0-.56-.56h0a.56.56,0,0,0-.56.56v2.85L428.8,166a.57.57,0,0,0-.79,0,.56.56,0,0,0,0,.79l2.2,2.21v5.6l-4.85-2.8-.8-3a.57.57,0,0,0-.69-.4h0a.56.56,0,0,0-.39.69L424,171l-2.46-1.43a.56.56,0,0,0-.76.21h0a.55.55,0,0,0,.2.76l2.47,1.42-1.93.52a.56.56,0,0,0-.4.68h0a.56.56,0,0,0,.68.4l3-.81,4.85,2.8-4.85,2.8-3-.8a.55.55,0,0,0-.68.39h0a.55.55,0,0,0,.4.68l1.93.52L421,180.55a.57.57,0,0,0-.2.77h0a.55.55,0,0,0,.76.2L424,180.1l-.51,1.93a.55.55,0,0,0,.39.68h0a.56.56,0,0,0,.69-.39l.8-3,4.85-2.8v5.6l-2.2,2.2a.56.56,0,1,0,.79.79l1.41-1.41v2.84a.56.56,0,0,0,.56.56h0a.56.56,0,0,0,.56-.56v-2.84l1.41,1.41a.56.56,0,0,0,.79-.79l-2.2-2.2v-5.6l4.85,2.8.8,3a.56.56,0,0,0,.69.39h0a.55.55,0,0,0,.39-.68l-.51-1.93,2.46,1.42a.55.55,0,0,0,.76-.2h0A.57.57,0,0,0,440.57,180.55Z" style="fill:#fff;opacity:0.6000000000000001"></path><path d="M339.5,175.86l-3-1.72,2.33-.63a.67.67,0,0,0,.48-.82h0a.69.69,0,0,0-.83-.48l-3.63,1L329,169.81l5.85-3.38,3.63,1a.68.68,0,0,0,.83-.48h0a.67.67,0,0,0-.48-.82l-2.33-.63,3-1.71a.67.67,0,0,0,.25-.92h0a.66.66,0,0,0-.92-.25l-3,1.72.62-2.33a.68.68,0,0,0-.47-.83h0a.68.68,0,0,0-.83.48l-1,3.63-5.86,3.38v-6.76l2.66-2.66a.68.68,0,0,0,0-.95.66.66,0,0,0-.95,0l-1.71,1.7v-3.43a.67.67,0,0,0-.67-.67h0a.67.67,0,0,0-.67.67V160l-1.71-1.7a.67.67,0,0,0-.95.95l2.66,2.66v6.76l-5.86-3.38-1-3.63a.68.68,0,0,0-.83-.48h0a.67.67,0,0,0-.47.83l.62,2.33-3-1.72a.66.66,0,0,0-.92.25h0a.67.67,0,0,0,.24.92l3,1.71-2.33.63a.66.66,0,0,0-.48.82h0a.67.67,0,0,0,.82.48l3.64-1,5.85,3.38-5.85,3.38-3.64-1a.68.68,0,0,0-.82.48h0a.66.66,0,0,0,.48.82l2.33.63-3,1.72a.67.67,0,0,0-.24.92h0a.67.67,0,0,0,.92.24l3-1.71-.62,2.33a.66.66,0,0,0,.47.82h0a.67.67,0,0,0,.83-.47l1-3.64L327,171v6.76l-2.66,2.66a.68.68,0,0,0,.95,1l1.71-1.71v3.43a.68.68,0,0,0,.67.68h0a.68.68,0,0,0,.67-.68v-3.43l1.71,1.71a.68.68,0,0,0,.95,0,.69.69,0,0,0,0-1l-2.66-2.66V171l5.86,3.38,1,3.64a.67.67,0,0,0,.83.47h0a.67.67,0,0,0,.47-.82l-.62-2.33,3,1.71a.67.67,0,0,0,.92-.24h0A.66.66,0,0,0,339.5,175.86Z" style="fill:#407BFF"></path><path d="M339.24,175.59l-3-1.72,2.33-.62a.69.69,0,0,0,.48-.83h0a.69.69,0,0,0-.83-.48l-3.63,1-5.85-3.38,5.85-3.38,3.63,1a.68.68,0,0,0,.83-.48h0a.68.68,0,0,0-.48-.82l-2.33-.63,3-1.71a.67.67,0,0,0,.24-.92h0a.66.66,0,0,0-.92-.25l-3,1.72.62-2.33a.67.67,0,0,0-.47-.83h0a.69.69,0,0,0-.83.48l-1,3.63-5.86,3.38v-6.76l2.66-2.66a.67.67,0,0,0-.95-.95l-1.71,1.71v-3.44a.67.67,0,0,0-.67-.67h0a.67.67,0,0,0-.67.67v3.44L325,158a.68.68,0,0,0-.95,0,.66.66,0,0,0,0,.95l2.66,2.66v6.76L320.88,165l-1-3.63a.69.69,0,0,0-.83-.48h0a.67.67,0,0,0-.47.83l.62,2.33-3-1.72a.66.66,0,0,0-.92.25h0a.67.67,0,0,0,.24.92l3,1.71-2.33.63a.67.67,0,0,0-.48.82h0a.67.67,0,0,0,.82.48l3.64-1,5.85,3.38-5.85,3.38-3.64-1a.68.68,0,0,0-.82.48h0a.68.68,0,0,0,.48.83l2.33.62-3,1.72a.67.67,0,0,0-.24.92h0a.67.67,0,0,0,.92.24l3-1.71-.62,2.33a.66.66,0,0,0,.47.82h0a.67.67,0,0,0,.83-.47l1-3.64,5.86-3.38v6.76l-2.66,2.66a.68.68,0,1,0,.95,1l1.71-1.71v3.43a.67.67,0,0,0,.67.68h0a.67.67,0,0,0,.67-.68v-3.43l1.71,1.71a.68.68,0,0,0,.95,0,.69.69,0,0,0,0-1l-2.66-2.66V170.7l5.86,3.38,1,3.64a.67.67,0,0,0,.83.47h0a.66.66,0,0,0,.47-.82l-.62-2.33,3,1.71a.67.67,0,0,0,.92-.24h0A.67.67,0,0,0,339.24,175.59Z" style="fill:#407BFF"></path><path d="M339.24,175.59l-3-1.72,2.33-.62a.69.69,0,0,0,.48-.83h0a.69.69,0,0,0-.83-.48l-3.63,1-5.85-3.38,5.85-3.38,3.63,1a.68.68,0,0,0,.83-.48h0a.68.68,0,0,0-.48-.82l-2.33-.63,3-1.71a.67.67,0,0,0,.24-.92h0a.66.66,0,0,0-.92-.25l-3,1.72.62-2.33a.67.67,0,0,0-.47-.83h0a.69.69,0,0,0-.83.48l-1,3.63-5.86,3.38v-6.76l2.66-2.66a.67.67,0,0,0-.95-.95l-1.71,1.71v-3.44a.67.67,0,0,0-.67-.67h0a.67.67,0,0,0-.67.67v3.44L325,158a.68.68,0,0,0-.95,0,.66.66,0,0,0,0,.95l2.66,2.66v6.76L320.88,165l-1-3.63a.69.69,0,0,0-.83-.48h0a.67.67,0,0,0-.47.83l.62,2.33-3-1.72a.66.66,0,0,0-.92.25h0a.67.67,0,0,0,.24.92l3,1.71-2.33.63a.67.67,0,0,0-.48.82h0a.67.67,0,0,0,.82.48l3.64-1,5.85,3.38-5.85,3.38-3.64-1a.68.68,0,0,0-.82.48h0a.68.68,0,0,0,.48.83l2.33.62-3,1.72a.67.67,0,0,0-.24.92h0a.67.67,0,0,0,.92.24l3-1.71-.62,2.33a.66.66,0,0,0,.47.82h0a.67.67,0,0,0,.83-.47l1-3.64,5.86-3.38v6.76l-2.66,2.66a.68.68,0,1,0,.95,1l1.71-1.71v3.43a.67.67,0,0,0,.67.68h0a.67.67,0,0,0,.67-.68v-3.43l1.71,1.71a.68.68,0,0,0,.95,0,.69.69,0,0,0,0-1l-2.66-2.66V170.7l5.86,3.38,1,3.64a.67.67,0,0,0,.83.47h0a.66.66,0,0,0,.47-.82l-.62-2.33,3,1.71a.67.67,0,0,0,.92-.24h0A.67.67,0,0,0,339.24,175.59Z" style="fill:#fff;opacity:0.6000000000000001"></path></g><g id="freepik--character-4--inject-440"><path d="M376.1,183a5.74,5.74,0,0,0-7.37,3.42l0,.08c-.82,2.26-1.66,4.67-2.56,7s-1.79,4.64-2.72,6.92-1.93,4.5-3,6.62c-.63,1.26-1.31,2.53-2,3.64-.2-.37-.4-.76-.59-1.14l-1.64-3.35-.08-.17a2.92,2.92,0,0,0-5.53,1.15,29.49,29.49,0,0,0,.13,4.32,24.14,24.14,0,0,0,.85,4.45,14.6,14.6,0,0,0,1,2.49,8.07,8.07,0,0,0,2.63,3.08,6.52,6.52,0,0,0,3.47,1.13,6.83,6.83,0,0,0,3.51-.88,10.07,10.07,0,0,0,3.07-2.75l-.44.55a37.21,37.21,0,0,0,5.27-7.3c1.41-2.41,2.62-4.82,3.75-7.26s2.15-4.89,3.11-7.35,1.86-4.92,2.67-7.54A5.77,5.77,0,0,0,376.1,183Z" style="fill:#263238"></path><path d="M351.12,205.82c-.28-1.78,2.39-6.8,2.39-6.8l5.65,5.35s-2.57,6.74-5.63,4.59A7,7,0,0,1,351.12,205.82Z" style="fill:#ff8b7b"></path><path d="M358,197l2.65,1.85a2,2,0,0,1,.45,2.9l-1.95,2.58L353.51,199l1.95-1.8A2.05,2.05,0,0,1,358,197Z" style="fill:#ff8b7b"></path><path d="M377.5,183.8l-4.09.58L369.12,191l-1.19,24.72c.8-1.15,1.49-2.3,2.17-3.46,1.41-2.41,2.62-4.82,3.75-7.26s2.15-4.89,3.11-7.35,1.86-4.92,2.67-7.54A5.75,5.75,0,0,0,377.5,183.8Z" style="opacity:0.5"></path><polygon points="371.62 406.44 364.5 406.33 365.56 389.79 372.67 389.91 371.62 406.44" style="fill:#ff8b7b"></polygon><path d="M364.74,404.18l7.77.12a.56.56,0,0,1,.56.49l.77,6.36a1.12,1.12,0,0,1-1.15,1.25c-2.8-.09-6.83-.32-10.36-.37-4.12-.07-3.71.1-8.55,0-2.92-.05-3.44-3-2.19-3.27,5.69-1.13,6.27-1.19,11.38-4.09A3.53,3.53,0,0,1,364.74,404.18Z" style="fill:#263238"></path><polygon points="365.56 389.8 365.01 398.32 372.13 398.44 372.67 389.91 365.56 389.8" style="opacity:0.2"></polygon><path d="M363.46,404.81a.18.18,0,0,0,.11-.13.19.19,0,0,0-.09-.18c-.33-.17-3.19-1.67-4.06-1.2a.55.55,0,0,0-.28.45h0a1,1,0,0,0,.32.82c.78.71,2.82.46,4,.25Zm-3.81-1.24c.54-.18,2.09.44,3.22,1-1.57.23-2.75.15-3.19-.25a.63.63,0,0,1-.2-.54.19.19,0,0,1,.11-.18Z" style="fill:#407BFF"></path><path d="M363.46,404.81l0,0a.18.18,0,0,0,.07-.15,4.92,4.92,0,0,0-1.11-2.77,1.23,1.23,0,0,0-.93-.3h0c-.47,0-.6.27-.63.46-.13.81,1.57,2.37,2.43,2.77A.2.2,0,0,0,363.46,404.81Zm-2.07-2.87a.4.4,0,0,1,.17,0h0a.89.89,0,0,1,.69.22,4,4,0,0,1,.94,2.21c-.88-.54-2-1.77-2-2.25C361.24,402.06,361.25,402,361.39,401.94Zm.15-.2Z" style="fill:#407BFF"></path><path d="M384.43,318.42c10-36.39,13.77-52.18,11.12-70.23l-25.14.3s-4.94,49.25-5.28,70.85c-.35,22.3-2.18,73.85-2.18,73.85l11.47.16S387.85,343.21,384.43,318.42Z" style="fill:#407BFF"></path><polygon points="361.29 390.64 362.07 395.56 374.69 395.79 375.36 391.14 361.29 390.64" style="fill:#263238"></polygon><path d="M392.92,263.08l-6.19,4.5s-5,29.64-2.1,50.13c5.8-21.19,9.48-35.36,11-47.09Z" style="opacity:0.2"></path><polygon points="410.07 406.44 402.94 406.33 401.46 389.79 408.59 389.91 410.07 406.44" style="fill:#ff8b7b"></polygon><path d="M402.55,404.18l7.76.12a.52.52,0,0,1,.53.49l.34,6.36A1.22,1.22,0,0,1,410,412.4c-2.8-.09-3.67-.32-7.19-.37-4.11-.07-2.22.1-7.05,0-2.92-.05-3.23-3-2-3.27,4-.83,5.13-2.4,7-4.09A2.61,2.61,0,0,1,402.55,404.18Z" style="fill:#263238"></path><polygon points="401.46 389.8 402.23 398.32 409.36 398.44 408.59 389.91 401.46 389.8" style="opacity:0.2"></polygon><path d="M403.93,404.72a.22.22,0,0,0,.16-.09.18.18,0,0,0,0-.2c-.22-.27-2.25-2.65-3.24-2.51a.58.58,0,0,0-.44.32h0a1,1,0,0,0-.05.88c.44.93,2.42,1.4,3.56,1.59Zm-3-2.47c.57,0,1.75,1.13,2.57,2-1.55-.32-2.6-.81-2.84-1.33a.63.63,0,0,1,0-.58.23.23,0,0,1,.17-.13Z" style="fill:#407BFF"></path><path d="M403.93,404.72H404a.2.2,0,0,0,.12-.12c0-.08.64-1.94.11-3a1.14,1.14,0,0,0-.74-.6h0a.62.62,0,0,0-.77.21c-.45.71.49,2.76,1.12,3.43A.16.16,0,0,0,403.93,404.72Zm-.74-3.4.17,0h0a.86.86,0,0,1,.55.45,4,4,0,0,1,0,2.39c-.59-.81-1.15-2.36-.88-2.78C403,401.39,403,401.32,403.19,401.32Zm.23-.13h0Z" style="fill:#407BFF"></path><path d="M412.16,280.6c.95-13,2.25-22.61-.41-32.81l-26.24.7s.7,49.5,4.5,70.85c3.94,22.19,9.18,73.85,9.18,73.85l11.49.16s4.77-50.14-1.48-74.93Z" style="fill:#407BFF"></path><polygon points="397.65 390.64 398.14 395.56 411.02 395.79 411.99 391.14 397.65 390.64" style="fill:#263238"></polygon><path d="M412.22,248.19c3-31.69,0-51.56-1.78-61.62a9.54,9.54,0,0,0-8.77-7.83,84.38,84.38,0,0,0-24,1.25,10.83,10.83,0,0,0-8.56,11c.41,8.29,2.25,16.86,2.45,24.6-5.88,13.46-3.88,27.77-1.29,33.25C370.28,248.86,378.9,254.56,412.22,248.19Z" style="fill:#263238"></path><path d="M391.06,164.81c.62,5.3,1.59,11.45,5.28,14.46a11.47,11.47,0,0,1-10.19,7.22c-5.68.29-4.73-4.24-3.75-6.64,2.46-2.7,1.35-5.71.78-7.85Z" style="fill:#ff8b7b"></path><path d="M389.44,167.4c0-.34-.08-.68-.12-1l-6.13,5.6a13,13,0,0,1,.72,4.53C386.94,174.52,389.75,170.61,389.44,167.4Z" style="opacity:0.2"></path><path d="M393.18,157.1c-1,7-1.26,11.16-5.11,14.51-5.8,5-14.22,1.17-15.32-6-1-6.44.84-16.83,8-19.12A9.58,9.58,0,0,1,393.18,157.1Z" style="fill:#ff8b7b"></path><path d="M393.1,164.91a5,5,0,0,1-4-1.55s1.41-3.52.87-6.22-1.7-4.41-.64-5.68c-5.09.79-19.84,1.49-18.11-1.61.75-1.35,2.94-.86,4-.48.43-1.22,4-5.17,12.19-2.9,5.45,1.52,7.24,6.82,6.8,8.74C395.09,156,397.57,162,393.1,164.91Z" style="fill:#263238"></path><path d="M395,164.41a6.77,6.77,0,0,1-4.25,2.93c-2.31.49-3.3-1.61-2.51-3.71.71-1.89,2.77-4.41,5-3.95A3,3,0,0,1,395,164.41Z" style="fill:#ff8b7b"></path><path d="M381.92,158.51c0,.57-.39,1-.76,1s-.64-.52-.59-1.09.39-1,.76-1S382,157.94,381.92,158.51Z" style="fill:#263238"></path><path d="M374.76,158.2c-.05.57-.39,1-.76,1s-.64-.52-.6-1.09.39-1,.77-1S374.81,157.63,374.76,158.2Z" style="fill:#263238"></path><path d="M376.83,158.93a20.88,20.88,0,0,1-3.42,4.5,3.3,3.3,0,0,0,2.64.89Z" style="fill:#ff5652"></path><path d="M383.3,155.27a.31.31,0,0,0,.15-.08.34.34,0,0,0,0-.48,3.31,3.31,0,0,0-2.88-1.06.34.34,0,0,0-.27.39.32.32,0,0,0,.39.27h0a2.64,2.64,0,0,1,2.27.87A.34.34,0,0,0,383.3,155.27Z" style="fill:#263238"></path><path d="M372.68,154.87a.35.35,0,0,0,.31-.08,2.65,2.65,0,0,1,2.33-.74.35.35,0,0,0,.41-.25.34.34,0,0,0-.24-.41,3.37,3.37,0,0,0-3,.9.35.35,0,0,0,0,.48A.42.42,0,0,0,372.68,154.87Z" style="fill:#263238"></path><path d="M389.19,187a183.35,183.35,0,0,0,1.45,41.53l-7.86,1.25s-3.89-13.74.9-42.78Z" style="fill:#407BFF"></path><path d="M389.19,187a183.35,183.35,0,0,0,1.45,41.53l-7.86,1.25s-3.89-13.74.9-42.78Z" style="fill:#fff;opacity:0.1"></path><path d="M381.35,183.1s-6.91,20-3.73,52.22L388,236.8s-4.26-29-.72-53.7Z" style="fill:#407BFF"></path><path d="M381.35,183.1s-6.91,20-3.73,52.22L388,236.8s-4.26-29-.72-53.7Z" style="fill:#fff;opacity:0.30000000000000004"></path><path d="M381.35,183.1s-.64,1.85-1.43,5.32a10.35,10.35,0,0,0,6.52,2.15c.21-2.51.49-5,.84-7.47Z" style="opacity:0.1"></path><path d="M381.34,175.4c2,.37,5.87.14,12.73-3.39a2,2,0,0,1,2.79,1,16.36,16.36,0,0,0,5.18,6.61s-15.82,18.93-26.25,1.27a7.33,7.33,0,0,0,3.21-4.19A2.07,2.07,0,0,1,381.34,175.4Z" style="fill:#407BFF"></path><path d="M381.34,175.4c2,.37,5.87.14,12.73-3.39a2,2,0,0,1,2.79,1,16.36,16.36,0,0,0,5.18,6.61s-15.82,18.93-26.25,1.27a7.33,7.33,0,0,0,3.21-4.19A2.07,2.07,0,0,1,381.34,175.4Z" style="fill:#fff;opacity:0.30000000000000004"></path><path d="M379,180.12s4.28,4,12.27,1.15C391.26,181.27,381.24,189,379,180.12Z" style="opacity:0.1"></path><path d="M377.48,146s8-7.09,16.42-2.76,9.33,13.29,9.25,17.54-4.44-8.69-7.15-4.53C396,156.26,393.6,149.48,377.48,146Z" style="fill:#407BFF"></path><path d="M397.86,150.34c-2.64-3.25-6.39-.83-7.76.25,4.91,2.9,5.9,5.67,5.9,5.67,2.33-3.58,5.88,5.49,6.88,5.39C402.21,159.24,400.41,153.49,397.86,150.34Z" style="opacity:0.2"></path><path d="M376.85,147.54c2.63.07,10.52,1.26,18.42,12.08a.55.55,0,0,0,1-.1c.82-2.09,1.78-7.32-8.94-13.37-6.56-3.7-9.73-.94-10.84.55A.53.53,0,0,0,376.85,147.54Z" style="fill:#407BFF"></path><path d="M376.85,147.54c2.63.07,10.52,1.26,18.42,12.08a.55.55,0,0,0,1-.1c.82-2.09,1.78-7.32-8.94-13.37-6.56-3.7-9.73-.94-10.84.55A.53.53,0,0,0,376.85,147.54Z" style="fill:#fff;opacity:0.7000000000000001"></path><path d="M402.62,159.7c.26,0,.69-.46.95-.44s.62.5.87.59.82,0,1,.1.29.73.46.93.74.37.85.61-.12.78-.07,1,.45.69.43.95-.49.62-.58.86.05.82-.1,1-.74.29-.94.46-.37.73-.6.85-.79-.12-1-.08-.69.46-.95.44-.62-.5-.86-.59-.83,0-1-.1-.29-.73-.46-.93-.74-.37-.85-.61.12-.78.07-1-.45-.69-.43-.95.5-.62.58-.86-.05-.82.1-1,.74-.29.94-.46.37-.73.6-.85S402.37,159.74,402.62,159.7Z" style="fill:#407BFF"></path><path d="M402.62,159.7c.26,0,.69-.46.95-.44s.62.5.87.59.82,0,1,.1.29.73.46.93.74.37.85.61-.12.78-.07,1,.45.69.43.95-.49.62-.58.86.05.82-.1,1-.74.29-.94.46-.37.73-.6.85-.79-.12-1-.08-.69.46-.95.44-.62-.5-.86-.59-.83,0-1-.1-.29-.73-.46-.93-.74-.37-.85-.61.12-.78.07-1-.45-.69-.43-.95.5-.62.58-.86-.05-.82.1-1,.74-.29.94-.46.37-.73.6-.85S402.37,159.74,402.62,159.7Z" style="fill:#fff;opacity:0.7000000000000001"></path><g style="opacity:0.2"><path d="M400.52,160.9a.83.83,0,0,0,0-.24,1.15,1.15,0,0,0-.51.27,1.71,1.71,0,0,0-.07.75C400.07,161.43,400.44,161.12,400.52,160.9Z" style="opacity:0.7000000000000001"></path><path d="M407.11,163.56a.41.41,0,0,0,0-.08.29.29,0,0,0,0-.09A.91.91,0,0,0,407.11,163.56Z" style="opacity:0.7000000000000001"></path><path d="M406.1,164.76c-.2.17-.37.74-.6.85s-.79-.12-1-.07-.69.46-.95.43-.62-.49-.87-.58-.82.05-1-.1-.29-.74-.46-.94-.74-.36-.85-.6.12-.78.07-1-.36-.6-.41-.86c0,0,0,.09,0,.12-.08.24-.56.6-.58.86s.39.7.43.95-.18.81-.07,1,.68.41.85.61.24.79.46.93.79,0,1,.1.6.56.86.59.69-.39.95-.44.8.19,1,.08.4-.69.6-.85.79-.25.94-.46.06-.53.07-.81A1.76,1.76,0,0,0,406.1,164.76Z" style="opacity:0.7000000000000001"></path></g><path d="M375.54,165.89a28.82,28.82,0,0,1,5.51-.93,3.49,3.49,0,0,1-3.34,2.64A1.82,1.82,0,0,1,375.54,165.89Z" style="fill:#263238"></path><path d="M378.63,166.5a4,4,0,0,0-2.25.85,2.14,2.14,0,0,0,1.33.25,3.91,3.91,0,0,0,2.23-.85A2.08,2.08,0,0,0,378.63,166.5Z" style="fill:#ff5652"></path><path d="M375.73,165.83a.77.77,0,0,0,.66.56,22.37,22.37,0,0,0,3.6-.69,1.24,1.24,0,0,0,.89-.72A33.22,33.22,0,0,0,375.73,165.83Z" style="fill:#fff"></path><path d="M398.79,215.73l-10-6.54a2.77,2.77,0,0,0-.9.84,2.86,2.86,0,0,0,.74,4A92,92,0,0,0,402.48,222a41.81,41.81,0,0,0,8.1,2.83,18.08,18.08,0,0,0,2.52.38l.41,0c0-1.94,0-3.79,0-5.6Z" style="opacity:0.5"></path><path d="M411.86,195.52l-5.33-9.94L402,190s5.21,13,5.75,23.63l5.61,1C413.15,207,412.54,200.64,411.86,195.52Z" style="opacity:0.5"></path><polygon points="387.94 216.18 378.15 177.06 350.39 179.34 349.98 179.77 359.76 218.88 387.52 216.6 387.94 216.18" style="fill:#263238"></polygon><polygon points="387.94 216.18 378.15 177.06 350.39 179.34 349.98 179.77 359.76 218.88 387.52 216.6 387.94 216.18" style="fill:#fff;opacity:0.6000000000000001"></polygon><polygon points="387.52 216.6 359.76 218.88 349.98 179.77 377.73 177.49 387.52 216.6" style="fill:#fff;opacity:0.7000000000000001"></polygon><polygon points="387.52 216.6 359.76 218.88 349.98 179.77 387.52 216.6" style="opacity:0.1"></polygon><path d="M421.73,213.53a60.48,60.48,0,0,0-4-16.38c-1-2.55-2.06-5-3.23-7.46-.6-1.21-1.22-2.4-1.86-3.6s-1.28-2.32-2.07-3.6a5.75,5.75,0,0,0-9.94,5.78l.11.19,1.69,3.11c.58,1.07,1.13,2.15,1.67,3.25,1.08,2.17,2.1,4.38,3.07,6.59s1.79,4.44,2.55,6.66c.33,1.11.69,2.23,1,3.32.09.33.18.66.25,1a40.8,40.8,0,0,1-6.39-1c-4.74-1-9.66-2.44-14.46-3.87l-.08,0a2.87,2.87,0,0,0-2.27,5.22,91.91,91.91,0,0,0,14.35,7,41.77,41.77,0,0,0,8.28,2.27,17.81,17.81,0,0,0,2.54.2,11.74,11.74,0,0,0,3.25-.4,7.67,7.67,0,0,0,4.31-3.05,7.23,7.23,0,0,0,1.15-2.82A8.61,8.61,0,0,0,421.73,213.53Z" style="fill:#263238"></path><path d="M390.32,207.19l-2-4.52-5.93,5s3.42,5.75,6,3.89a13,13,0,0,0,1.57-1.83A2.43,2.43,0,0,0,390.32,207.19Z" style="fill:#ff8b7b"></path><path d="M382,200.22l-1.78,2.11a2.27,2.27,0,0,0,0,2.92l2.12,2.46,5.93-5-3.07-2.7A2.25,2.25,0,0,0,382,200.22Z" style="fill:#ff8b7b"></path></g><g id="freepik--character-3--inject-440"><path d="M318.15,227.67s1.48,10.57-2.34,8.1c0,0-3,5.55-4.65,2.32s4.5-12.07,4.5-12.07Z" style="fill:#263238"></path><path d="M318.15,227.67s1.48,10.57-2.34,8.1c0,0-3,5.55-4.65,2.32s4.5-12.07,4.5-12.07Z" style="fill:#fff;opacity:0.5"></path><path d="M295.07,250.61a5.68,5.68,0,0,0-7.5,2.89l0,.07-2.11,4.75c-.7,1.59-1.44,3.16-2.17,4.7s-1.5,3-2.26,4.36c-.37.64-.76,1.23-1.08,1.7a6,6,0,0,1-.75-.2,16.1,16.1,0,0,1-3.4-1.49,35.14,35.14,0,0,1-3.55-2.27c-1.17-.82-2.39-1.8-3.47-2.65l-.22-.17a2.84,2.84,0,0,0-4.28,3.55,31.21,31.21,0,0,0,6.39,8.39,22.38,22.38,0,0,0,4.7,3.36,15.19,15.19,0,0,0,6.54,1.82,4.19,4.19,0,0,0,1.69-.29l.2-.08a9.82,9.82,0,0,0,2.66-1.61,17.9,17.9,0,0,0,1.51-1.45,25.81,25.81,0,0,0,2.13-2.66,52.23,52.23,0,0,0,3.19-5.12c.95-1.69,1.79-3.41,2.6-5.13s1.54-3.42,2.23-5.28A5.71,5.71,0,0,0,295.07,250.61Z" style="fill:#407BFF"></path><path d="M259.73,262l.82-3.15a1.83,1.83,0,0,1,2.36-1.31h0a7.13,7.13,0,0,1,3.63,3l2.29,3.69a2.64,2.64,0,0,1,.38,1.37h0a2.55,2.55,0,0,1-3.76,2.2,11.67,11.67,0,0,1-2.56-2l-2.51-1.89A1.83,1.83,0,0,1,259.73,262Z" style="fill:#ff8b7b"></path><path d="M295.86,263.08c.8-1.74,1.54-3.42,2.23-5.28a5.69,5.69,0,0,0-2.86-7.1l-5.32,2.43-2.42,3.46-3.16,22.21a9.79,9.79,0,0,0,2.1-1.36,17.9,17.9,0,0,0,1.51-1.45,25.81,25.81,0,0,0,2.13-2.66,52.23,52.23,0,0,0,3.19-5.12C294.21,266.52,295.05,264.8,295.86,263.08Z" style="opacity:0.1"></path><path d="M296.69,247.91a119.47,119.47,0,0,1,23.62-1.14,8.55,8.55,0,0,1,8,9.67c-2,16-2.05,18.53-1.64,29.3l-35.46.69c-.2-11.61-3.67-20-2.1-30.87A9.17,9.17,0,0,1,296.69,247.91Z" style="fill:#263238"></path><path d="M312.22,234.18c.45,4.26,2.63,10,4.81,12.61,0,0-4.76,8.16-11.31,6.71-4.37-1-2.59-6.32-2.59-6.32,2.05-1.37,1.53-4.35.24-6.87Z" style="fill:#ff8b7b"></path><path d="M310.6,235.3a9.69,9.69,0,0,1-.57,3.76c-.74,2-3.34,3.74-5.62,4.27a10.48,10.48,0,0,0-1-3Z" style="opacity:0.2"></path><path d="M316.45,226.33c-1.77,7.32-2.37,10.45-6.76,13.69-6.6,4.87-15.15,1.37-15.58-6.26-.39-6.87,2.58-17.69,10.3-19.56A9.88,9.88,0,0,1,316.45,226.33Z" style="fill:#ff8b7b"></path><path d="M305.36,227c-.11.6-.51,1-.9,1s-.62-.59-.52-1.19.52-1,.91-1S305.47,226.39,305.36,227Z" style="fill:#263238"></path><path d="M297.69,225.87c-.1.61-.51,1-.9,1s-.62-.6-.51-1.2.51-1,.9-1S297.8,225.27,297.69,225.87Z" style="fill:#263238"></path><path d="M297.35,224.74l-1.37-.63S296.52,225.35,297.35,224.74Z" style="fill:#263238"></path><path d="M300.2,227.28a17,17,0,0,1-2.82,3.52,2.54,2.54,0,0,0,2.06.72Z" style="fill:#ff5652"></path><path d="M301.23,234a6.05,6.05,0,0,1-1-.06.17.17,0,0,1-.14-.21.2.2,0,0,1,.21-.15,5,5,0,0,0,4.2-1.28.18.18,0,0,1,.25,0,.18.18,0,0,1,0,.25A5.14,5.14,0,0,1,301.23,234Z" style="fill:#263238"></path><path d="M317.87,231a5.78,5.78,0,0,1-3.13,2.86c-1.82.66-2.84-.9-2.42-2.68.38-1.6,1.79-3.87,3.65-3.78A2.4,2.4,0,0,1,317.87,231Z" style="fill:#ff8b7b"></path><path d="M307.56,223.47a.39.39,0,0,1-.23-.15,2.77,2.77,0,0,0-2.19-1.3.35.35,0,0,1-.36-.35.37.37,0,0,1,.37-.36,3.41,3.41,0,0,1,2.79,1.61.37.37,0,0,1-.11.49A.39.39,0,0,1,307.56,223.47Z" style="fill:#263238"></path><path d="M295.49,222a.3.3,0,0,1-.23-.13.35.35,0,0,1,.05-.5,3.55,3.55,0,0,1,3.17-.8.36.36,0,0,1-.23.69,2.82,2.82,0,0,0-2.5.66A.35.35,0,0,1,295.49,222Z" style="fill:#263238"></path><path d="M305,225.85l-1.37-.63S304.19,226.46,305,225.85Z" style="fill:#263238"></path><path d="M305.46,291.76s4.05,25.57,9.73,59c8.59,33.12,9.91,57.35,9.91,57.35h5.26s7.38-39.1-.28-58.51c1.13-24.89-4.3-57.19-4.3-57.19Z" style="fill:#263238"></path><path d="M330.87,407.28c0,1.06.43,3.15.53,4.21a.82.82,0,0,1-.82.82c-1.82-.06-2.22-.11-4.52-.15-2.69,0-3.4.2-6.55.15-1.91,0-2.1-2-1.27-2.14,3.77-.74,4.73-.94,5.6-2.89.56-1.25.35-5.46.35-5.46a.8.8,0,0,1,.79-.88h6.09a.8.8,0,0,1,.79.94A44.65,44.65,0,0,0,330.87,407.28Z" style="fill:#407BFF"></path><path d="M292.29,291.38s0,25.06,2,58.82a390.72,390.72,0,0,1,1.78,57.94h5.26s12.68-39.74,8.09-59.09c5.09-24.83,3.12-57,3.12-57Z" style="fill:#263238"></path><path d="M302,407.26c-.12,1.08.15,3.22.15,4.3a.91.91,0,0,1-.9.84c-1.86-.06-2.26-.12-4.61-.15-2.74-.05-3.48.2-6.7.15-2,0-2-2-1.11-2.18,3.92-.76,4.95-.94,6-3,.65-1.24.82-5.57.82-5.57a.92.92,0,0,1,.9-.91h6.21a.75.75,0,0,1,.72,1A48.08,48.08,0,0,0,302,407.26Z" style="fill:#407BFF"></path><path d="M291.25,286.43c-6.66,19.17,2.84,57.64,2.84,100.69,13.2,2,28.79,2.23,41.06-.76,0-16.42-2-31.17-2.54-45.22-1-24-1.36-44.15-5.9-55.4Z" style="fill:#407BFF"></path><path d="M291.25,286.43c-6.66,19.17,2.84,57.64,2.84,100.69,13.2,2,28.79,2.23,41.06-.76,0-16.42-2-31.17-2.54-45.22-1-24-1.36-44.15-5.9-55.4Z" style="fill:#fff;opacity:0.4"></path><polygon points="308.08 332.86 307.53 314.34 301.42 305.54 308.08 332.86" style="opacity:0.2"></polygon><path d="M317.87,247a1.5,1.5,0,0,1,1.49-.93c6.85.44,11.87,5.58,11.71,13.6-.17,8.4-1.34,28.34-.05,34.52-4.07,2.37-9.91,2.42-13.43,2.18a3.26,3.26,0,0,1-3-3.28C314.65,283.55,315.16,253.74,317.87,247Z" style="fill:#407BFF"></path><path d="M301.48,247.63a.51.51,0,0,0-.44-.81c-6.89.37-13.44,3.77-13.77,11.69-.35,8.4-.92,29.48-.57,36.27,1.4,1.69,4.2,1.89,6.4,1.73a3.25,3.25,0,0,0,3-3.32C295.91,283.91,295.8,254.81,301.48,247.63Z" style="fill:#407BFF"></path><path d="M308.75,253.37a165.25,165.25,0,0,0,1.31,37.38L303,291.88s-3.5-12.37.81-38.51Z" style="fill:#407BFF"></path><path d="M308.75,253.37a165.25,165.25,0,0,0,1.31,37.38L303,291.88s-3.5-12.37.81-38.51Z" style="fill:#fff;opacity:0.5"></path><path d="M301.69,249.87s-6.21,18-3.35,47l9.34,1.33s-3.84-26.12-.65-48.33Z" style="fill:#407BFF"></path><path d="M301.69,249.87s-6.21,18-3.35,47l9.34,1.33s-3.84-26.12-.65-48.33Z" style="fill:#fff;opacity:0.6000000000000001"></path><path d="M301.69,249.87s-.57,1.66-1.28,4.78a9.31,9.31,0,0,0,5.87,1.94c.19-2.26.43-4.51.75-6.72Z" style="opacity:0.1"></path><path d="M322.4,277.11a27.87,27.87,0,0,0,3-5.57c.75-1.79,1.32-3.55,1.86-5.3s1-3.51,1.36-5.26.71-3.47,1-5.36a5.4,5.4,0,0,0-10.64-1.82l0,.11c-.61,3.08-1.28,6.39-2.07,9.46-.37,1.55-.81,3.06-1.27,4.49-.1.32-.21.63-.32.94-.22,4.29-.37,8.65-.47,12.6a7.37,7.37,0,0,0,1.13,0,7.44,7.44,0,0,0,1.61-.33,7.52,7.52,0,0,0,1.61-.75A11.59,11.59,0,0,0,322.4,277.11Z" style="opacity:0.1"></path><path d="M301.69,242.93c1.79.34,5.28.13,11.45-3.05a1.8,1.8,0,0,1,2.51.94,14.82,14.82,0,0,0,4.66,6s-14.23,17-23.62,1.14a6.56,6.56,0,0,0,2.89-3.77A1.87,1.87,0,0,1,301.69,242.93Z" style="fill:#407BFF"></path><path d="M301.69,242.93c1.79.34,5.28.13,11.45-3.05a1.8,1.8,0,0,1,2.51.94,14.82,14.82,0,0,0,4.66,6s-14.23,17-23.62,1.14a6.56,6.56,0,0,0,2.89-3.77A1.87,1.87,0,0,1,301.69,242.93Z" style="fill:#fff;opacity:0.6000000000000001"></path><path d="M299.57,247.18s3.85,3.63,11,1C310.61,248.22,301.6,255.15,299.57,247.18Z" style="opacity:0.1"></path><path d="M303.65,215.59c.22,1.57,1.25,8.35,4.85,4,0,0,2.41,9.18,4.46,3.83,0,0,.83,8.21,3.68,5.51s.43-6.3.12-10S302.44,206.72,303.65,215.59Z" style="fill:#263238"></path><path d="M303.65,215.59c.22,1.57,1.25,8.35,4.85,4,0,0,2.41,9.18,4.46,3.83,0,0,.83,8.21,3.68,5.51s.43-6.3.12-10S302.44,206.72,303.65,215.59Z" style="fill:#fff;opacity:0.5"></path><path d="M304.41,214.46s-8.77,7.61-6.69,1c0,0-4.56-2.66,1.85-3.33S304.41,214.46,304.41,214.46Z" style="fill:#263238"></path><path d="M304.41,214.46s-8.77,7.61-6.69,1c0,0-4.56-2.66,1.85-3.33S304.41,214.46,304.41,214.46Z" style="fill:#fff;opacity:0.5"></path><path d="M301.48,210.53s9.79-6,17.89.23,7.31,15.83,6.41,20.3-3-10-6.69-6.15C319.09,224.91,317.85,217.28,301.48,210.53Z" style="fill:#407BFF"></path><path d="M322.19,219c-2.16-3.94-6.59-2.1-8.25-1.23,4.64,4,5.15,7.13,5.15,7.13,3.15-3.34,5.17,6.93,6.24,7C325.08,229.24,324.28,222.82,322.19,219Z" style="opacity:0.2"></path><path d="M300.53,212c2.76.58,10.87,3.35,17.15,16.3a.6.6,0,0,0,1.05.08c1.26-2.06,3.27-7.39-6.9-15.84-6.22-5.17-10.09-2.86-11.56-1.5A.57.57,0,0,0,300.53,212Z" style="fill:#407BFF"></path><path d="M300.53,212c2.76.58,10.87,3.35,17.15,16.3a.6.6,0,0,0,1.05.08c1.26-2.06,3.27-7.39-6.9-15.84-6.22-5.17-10.09-2.86-11.56-1.5A.57.57,0,0,0,300.53,212Z" style="fill:#fff;opacity:0.7000000000000001"></path><path d="M325.43,229.81c.28,0,.82-.35,1.09-.28s.56.65.8.78.88.11,1.08.31.16.83.3,1.08.71.53.78.8-.27.8-.27,1.08.35.82.27,1.09-.64.56-.78.8-.1.88-.3,1.08-.84.16-1.08.3-.53.71-.8.78-.81-.27-1.09-.27-.81.35-1.08.27-.56-.64-.8-.78-.88-.1-1.08-.3-.16-.84-.3-1.08-.71-.53-.79-.8.28-.81.28-1.09-.35-.81-.28-1.08.65-.56.79-.8.1-.88.3-1.08.84-.17,1.08-.31.53-.7.8-.78S325.15,229.81,325.43,229.81Z" style="fill:#407BFF"></path><path d="M325.43,229.81c.28,0,.82-.35,1.09-.28s.56.65.8.78.88.11,1.08.31.16.83.3,1.08.71.53.78.8-.27.8-.27,1.08.35.82.27,1.09-.64.56-.78.8-.1.88-.3,1.08-.84.16-1.08.3-.53.71-.8.78-.81-.27-1.09-.27-.81.35-1.08.27-.56-.64-.8-.78-.88-.1-1.08-.3-.16-.84-.3-1.08-.71-.53-.79-.8.28-.81.28-1.09-.35-.81-.28-1.08.65-.56.79-.8.1-.88.3-1.08.84-.17,1.08-.31.53-.7.8-.78S325.15,229.81,325.43,229.81Z" style="fill:#fff;opacity:0.7000000000000001"></path><g style="opacity:0.2"><path d="M323,230.67a.67.67,0,0,0,.08-.24,1.2,1.2,0,0,0-.59.19c-.14.14-.16.49-.22.77C322.4,231.15,322.86,230.89,323,230.67Z" style="opacity:0.7000000000000001"></path><path d="M329.43,234.75s.05-.05.05-.08a.34.34,0,0,0,0-.1A1,1,0,0,0,329.43,234.75Z" style="opacity:0.7000000000000001"></path><path d="M328.14,235.83c-.24.14-.53.71-.8.78s-.81-.28-1.09-.28-.81.35-1.08.28-.56-.64-.81-.78-.88-.11-1.07-.3-.17-.84-.31-1.08-.71-.53-.78-.8.28-.81.28-1.09-.27-.7-.27-1a.93.93,0,0,0,0,.13c-.14.24-.71.53-.79.8s.28.8.28,1.08-.35.82-.28,1.09.65.56.79.8.1.88.3,1.08.84.16,1.08.3.53.71.8.78.8-.27,1.08-.27.82.35,1.09.27.56-.64.8-.78.88-.1,1.08-.3.17-.55.22-.84A1.67,1.67,0,0,0,328.14,235.83Z" style="opacity:0.7000000000000001"></path></g><polygon points="294.98 281.4 288.42 241.62 260.57 241.62 260.12 242.01 266.68 281.8 294.52 281.8 294.98 281.4" style="fill:#263238"></polygon><polygon points="294.98 281.4 288.42 241.62 260.57 241.62 260.12 242.01 266.68 281.8 294.52 281.8 294.98 281.4" style="fill:#fff;opacity:0.6000000000000001"></polygon><polygon points="294.52 281.8 266.68 281.8 260.12 242.01 287.97 242.01 294.52 281.8" style="fill:#fff;opacity:0.7000000000000001"></polygon><polygon points="294.52 281.8 266.68 281.8 260.12 242.01 294.52 281.8" style="opacity:0.1"></polygon><path d="M325.89,248.44a5.4,5.4,0,0,0-6.61,3.83l0,.11c-.81,3-1.69,6.29-2.66,9.31-.47,1.52-1,3-1.56,4.4a21.83,21.83,0,0,1-1.73,3.55,4,4,0,0,1-.23.34c-.21-.05-.45-.11-.69-.19-.61-.2-1.28-.46-2-.76-2.74-1.23-5.66-3-8.51-4.6l-.12-.07a2.72,2.72,0,0,0-3.53,4,41.08,41.08,0,0,0,3.57,4.16,35.65,35.65,0,0,0,4.22,3.73,24.13,24.13,0,0,0,2.56,1.68A14.45,14.45,0,0,0,312,279.3a8.47,8.47,0,0,0,2.51.28,7.55,7.55,0,0,0,1.62-.22,7.77,7.77,0,0,0,1.66-.65,11.51,11.51,0,0,0,3.47-2.95,28.09,28.09,0,0,0,3.32-5.38c.85-1.73,1.54-3.46,2.19-5.17s1.2-3.43,1.69-5.16.94-3.42,1.33-5.28A5.43,5.43,0,0,0,325.89,248.44Z" style="fill:#407BFF"></path><path d="M300.93,264l-6.4-3.88,1.3,7.54a11.77,11.77,0,0,0,4,.65,2.32,2.32,0,0,0,2.07-3.18h0A2.36,2.36,0,0,0,300.93,264Z" style="fill:#ff8b7b"></path><path d="M289.91,262l.08,3.58a1.8,1.8,0,0,0,1.66,1.74l4.18.31-1.3-7.54-3.45.54A1.35,1.35,0,0,0,289.91,262Z" style="fill:#ff8b7b"></path><path d="M306.36,227.75a3.44,3.44,0,0,1,2.64-.2A6.75,6.75,0,0,1,306.36,227.75Z" style="opacity:0.2"></path><path d="M306.44,228.38a2.86,2.86,0,0,1,2.37.42A5.81,5.81,0,0,1,306.44,228.38Z" style="opacity:0.2"></path><path d="M305.88,231.73a2.86,2.86,0,0,1,1.58,1.81A5.69,5.69,0,0,1,305.88,231.73Z" style="opacity:0.2"></path><path d="M299.42,233.28a2.86,2.86,0,0,0-1.58,1.81A5.69,5.69,0,0,0,299.42,233.28Z" style="opacity:0.2"></path><path d="M306.92,229.83l-.12,0-4.28-.68a1.15,1.15,0,0,1-.84-1.27l.15-1.88a5.26,5.26,0,0,0-2.43-.4l-.15,1.85a1.16,1.16,0,0,1-.42.84.78.78,0,0,1-.64.17l-4.28-.68a1.16,1.16,0,0,1-.84-1.28l.16-1.93a.22.22,0,0,1,.25-.21.24.24,0,0,1,.22.25l-.16,1.93a.7.7,0,0,0,.45.77l4.28.69a.41.41,0,0,0,.27-.08.69.69,0,0,0,.24-.51l.16-1.92a.34.34,0,0,1,.22-.3,5,5,0,0,1,2.93.43.39.39,0,0,1,.21.37l-.15,1.92a.7.7,0,0,0,.44.78l4.28.68a.34.34,0,0,0,.28-.08.72.72,0,0,0,.24-.5l.15-1.93a.25.25,0,0,1,.26-.22.24.24,0,0,1,.21.26l-.15,1.92a1.18,1.18,0,0,1-.42.84A.83.83,0,0,1,306.92,229.83Z" style="fill:#407BFF"></path></g><g id="freepik--character-2--inject-440"><path d="M240,246l-.28-.08c-4-1.13-8.23-2-11.63-3.12-.46-.16-.89-.31-1.28-.47-.09-.37-.21-1.06-.33-1.79a50.54,50.54,0,0,1-.5-5.36c-.13-1.92-.17-3.91-.21-5.92s-.05-4-.06-6.1l0-6.06v-.14a9,9,0,0,0-17.94-.51c-.08,1.24-.12,2.31-.14,3.45s0,2.24,0,3.37c0,2.24.11,4.5.24,6.77s.39,4.57.7,6.92a62,62,0,0,0,1.46,7.36,29.19,29.19,0,0,0,1.53,4.32,18.5,18.5,0,0,0,1.53,2.73,12.72,12.72,0,0,0,1.35,1.68,12.42,12.42,0,0,0,1,.91c.38.32.64.47,1,.7l.47.3c.15.09.28.15.42.22s.56.29.83.42a13,13,0,0,0,1.44.54l.67.21.61.15c.43.11.8.17,1.18.24a25,25,0,0,0,4.14.34,41.93,41.93,0,0,0,7.24-.6,44.59,44.59,0,0,0,6.84-1.68,4.66,4.66,0,0,0,3-3.12A4.6,4.6,0,0,0,240,246Z" style="fill:#407BFF"></path><path d="M240,246l-.28-.08c-4-1.13-8.23-2-11.63-3.12-.46-.16-.89-.31-1.28-.47-.09-.37-.21-1.06-.33-1.79a50.54,50.54,0,0,1-.5-5.36c-.13-1.92-.17-3.91-.21-5.92s-.05-4-.06-6.1l0-6.06v-.14a9,9,0,0,0-17.94-.51c-.08,1.24-.12,2.31-.14,3.45s0,2.24,0,3.37c0,2.24.11,4.5.24,6.77s.39,4.57.7,6.92a62,62,0,0,0,1.46,7.36,29.19,29.19,0,0,0,1.53,4.32,18.5,18.5,0,0,0,1.53,2.73,12.72,12.72,0,0,0,1.35,1.68,12.42,12.42,0,0,0,1,.91c.38.32.64.47,1,.7l.47.3c.15.09.28.15.42.22s.56.29.83.42a13,13,0,0,0,1.44.54l.67.21.61.15c.43.11.8.17,1.18.24a25,25,0,0,0,4.14.34,41.93,41.93,0,0,0,7.24-.6,44.59,44.59,0,0,0,6.84-1.68,4.66,4.66,0,0,0,3-3.12A4.6,4.6,0,0,0,240,246Z" style="opacity:0.2"></path><path d="M236.62,247.76c-.19,1.37,1.43,3.92,2.2,5.06,3.24,4.82,8.49-2,8.49-2l3.33-2.09a2.93,2.93,0,0,0,.91-3.68L250,241.53a3.06,3.06,0,0,0-3.82-1.88L243.06,241a6.06,6.06,0,0,0-2.36,1.77S236.84,246.16,236.62,247.76Z" style="fill:#ffb573"></path><path d="M204.82,346.29c-5.1-19.64-20.46-42.74-10.26-60.75L231,289s1.33,34.19,1.58,52.56c.27,19.09-1.38,55.18-1.38,55.18l-15,1.13S206,368.32,204.82,346.29Z" style="fill:#407BFF"></path><path d="M204.82,346.29c-5.1-19.64-20.46-42.74-10.26-60.75L231,289s1.33,34.19,1.58,52.56c.27,19.09-1.38,55.18-1.38,55.18l-15,1.13S206,368.32,204.82,346.29Z" style="fill:#fff;opacity:0.5"></path><path d="M193.61,303.18c-.14,3.78-.06,7.64.17,11.52,2.73,9.14,7,18.44,9.76,27.2C206.35,320.1,205.45,297.47,193.61,303.18Z" style="opacity:0.2"></path><polygon points="189.93 391.5 176.82 391.32 177.55 406.81 188.5 406.97 189.93 391.5" style="fill:#ffb573"></polygon><polygon points="189.92 391.5 176.82 391.32 177.23 400 189.13 400.17 189.92 391.5" style="opacity:0.2"></polygon><path d="M169.44,344.13c-3.17-20-8.25-41.85-6.24-61.45l41.59,6.89s-5.75,34.17-7.27,52.48c-1.58,19-6.7,54.79-6.7,54.79l-15-.32S168.51,366.18,169.44,344.13Z" style="fill:#407BFF"></path><g style="opacity:0.5"><path d="M169.44,344.13c-3.17-20-8.25-41.85-6.24-61.45l41.59,6.89s-5.75,34.17-7.27,52.48c-1.58,19-6.7,54.79-6.7,54.79l-15-.32S168.51,366.18,169.44,344.13Z" style="fill:#fff"></path></g><path d="M215.53,206.1a165.49,165.49,0,0,0-36.33-2.93c-7,.31-12.38,4.16-12.91,18.49-1.09,29.08-5.91,51.36-3.23,62.11,0,0,52,20.5,68.7,7.28,7.07-34.43-2.62-64.52-7.16-77.09A12.24,12.24,0,0,0,215.53,206.1Z" style="fill:#407BFF"></path><path d="M210.26,207.93c1.5-1.26-1.84.1-2.31-2a7.06,7.06,0,0,1,1.22-4.64l-15.65-10.5c-.26,6.1-.48,10.92-3.4,13.08C190.12,203.86,203.81,213.32,210.26,207.93Z" style="fill:#ffb573"></path><path d="M208.87,201.77l-12.71-4.52c2.79,5.5,8.45,8.91,11.75,8A7.22,7.22,0,0,1,208.87,201.77Z" style="opacity:0.2"></path><path d="M206.35,171.53c-8.44-2.74-16.58,3.7-15.66,11.67s1.72,13.37,6.86,16.55c10.22,6.32,15.95,1.73,17.62-6.35C216.66,186.13,214.92,174.32,206.35,171.53Z" style="fill:#ffb573"></path><path d="M191.14,189.9c4.71,1.55,8,.48,6.07-3.54-.84-1.73,1.34-4-.27-7a2.65,2.65,0,0,1,2.69-3.92c4.9.7,11.44,4.19,12.66.76a3,3,0,0,0-.85-3.14,15.67,15.67,0,0,0-5.16-3.17c-7.45-2.88-17.84-.33-19,10.22C186.23,189.17,191.14,189.9,191.14,189.9Z" style="fill:#263238"></path><path d="M188.05,190a7.1,7.1,0,0,0,4.37,3.24c2.44.58,3.58-1.62,2.85-3.87-.67-2-2.73-4.77-5.15-4.35A3.22,3.22,0,0,0,188.05,190Z" style="fill:#ffb573"></path><path d="M204.87,186.73c-.07.66.22,1.23.65,1.28s.85-.45.92-1.12-.21-1.24-.65-1.28S205,186.06,204.87,186.73Z" style="fill:#263238"></path><path d="M212.65,187.67c-.08.66.21,1.23.65,1.28s.84-.46.92-1.12-.22-1.24-.65-1.28S212.72,187,212.65,187.67Z" style="fill:#263238"></path><path d="M210.4,187.66l-1,5.51a3.51,3.51,0,0,0,2.92,0A11.39,11.39,0,0,0,210.4,187.66Z" style="fill:#ed893e"></path><path d="M203.52,183.81a.45.45,0,0,1-.19-.05.4.4,0,0,1-.14-.54,3.93,3.93,0,0,1,3-2,.38.38,0,0,1,.41.37.4.4,0,0,1-.37.41h0a3.17,3.17,0,0,0-2.34,1.62A.39.39,0,0,1,203.52,183.81Z" style="fill:#263238"></path><path d="M215.33,184.2a.37.37,0,0,1-.28-.24,3.07,3.07,0,0,0-2.08-1.91.38.38,0,0,1-.3-.46.4.4,0,0,1,.46-.31,3.88,3.88,0,0,1,2.65,2.39.39.39,0,0,1-.22.51A.37.37,0,0,1,215.33,184.2Z" style="fill:#263238"></path><path d="M190.29,405c.42.4,9.77,3.18,9.77,3.18a7.32,7.32,0,0,1,.34,3.94H177.07a1.28,1.28,0,0,1-1.23-1.64,20.59,20.59,0,0,0,.85-4.81c.07-2.65-.58-10.58-.58-10.58H190.6S188.46,403.27,190.29,405Z" style="fill:#407BFF"></path><path d="M190.29,405c.42.4,9.77,3.18,9.77,3.18a7.32,7.32,0,0,1,.34,3.94H177.07a1.28,1.28,0,0,1-1.23-1.64,20.59,20.59,0,0,0,.85-4.81c.07-2.65-.58-10.58-.58-10.58H190.6S188.46,403.27,190.29,405Z" style="opacity:0.2"></path><path d="M230.76,405c.45.4,9.94,3.18,9.94,3.18a7.5,7.5,0,0,1,.54,3.94H217.91a1.35,1.35,0,0,1-1.31-1.64,20.22,20.22,0,0,0,.59-4.81c-.06-2.65-1.12-10.58-1.12-10.58h14.49S228.84,403.27,230.76,405Z" style="fill:#407BFF"></path><path d="M230.76,405c.45.4,9.94,3.18,9.94,3.18a7.5,7.5,0,0,1,.54,3.94H217.91a1.35,1.35,0,0,1-1.31-1.64,20.22,20.22,0,0,0,.59-4.81c-.06-2.65-1.12-10.58-1.12-10.58h14.49S228.84,403.27,230.76,405Z" style="opacity:0.2"></path><path d="M210.73,194.78a41.48,41.48,0,0,0-7.84-1.41,5,5,0,0,0,4.72,3.81A2.59,2.59,0,0,0,210.73,194.78Z" style="fill:#263238"></path><path d="M206.32,195.61a5.58,5.58,0,0,1,3.19,1.25,3,3,0,0,1-1.89.32,5.58,5.58,0,0,1-3.18-1.25A2.92,2.92,0,0,1,206.32,195.61Z" style="fill:#ff5652"></path><path d="M210.47,194.7a1.16,1.16,0,0,1-1,.79,30.58,30.58,0,0,1-5.11-1.06,1.76,1.76,0,0,1-1.26-1A46.15,46.15,0,0,1,210.47,194.7Z" style="fill:#fff"></path><path d="M198.52,211.15a143.66,143.66,0,0,1-.7,42.08l8.92,1.18s3.47-15.81-2-43.26Z" style="fill:#407BFF"></path><path d="M198.52,211.15a143.66,143.66,0,0,1-.7,42.08l8.92,1.18s3.47-15.81-2-43.26Z" style="fill:#fff;opacity:0.4"></path><path d="M208.36,210.3s7.85,18.93,4.23,49.35l-11.77,1.4s4.84-27.42.81-50.75Z" style="fill:#407BFF"></path><path d="M208.36,210.3s7.85,18.93,4.23,49.35l-11.77,1.4s4.84-27.42.81-50.75Z" style="fill:#fff;opacity:0.6000000000000001"></path><path d="M208.36,210.3a46.41,46.41,0,0,1,1.63,5,13.35,13.35,0,0,1-7.41,2c-.24-2.37-.55-4.73-1-7.06Z" style="opacity:0.1"></path><path d="M209.32,203c-2.26.35-9.5.14-17.28-3.2-1.2-.52-4.54,1-8.1,3.45,0,0,18.9,18.83,30.73,2.14C214.67,205.41,210.47,202.84,209.32,203Z" style="fill:#407BFF"></path><path d="M209.32,203c-2.26.35-9.5.14-17.28-3.2-1.2-.52-4.54,1-8.1,3.45,0,0,18.9,18.83,30.73,2.14C214.67,205.41,210.47,202.84,209.32,203Z" style="fill:#fff;opacity:0.6000000000000001"></path><path d="M210.52,206.56s-3.36,2.68-10.38,2C200.14,208.59,209.25,211.63,210.52,206.56Z" style="opacity:0.1"></path><path d="M175.07,397l16.2.38a.58.58,0,0,0,.58-.48l.92-5.94a.56.56,0,0,0-.58-.65l-18.08.64a.57.57,0,0,0-.54.68l1,4.91A.58.58,0,0,0,175.07,397Z" style="fill:#407BFF"></path><path d="M215.52,398.41l16.17-1.19a.55.55,0,0,0,.52-.53l.35-6a.57.57,0,0,0-.64-.6L214,392.48a.58.58,0,0,0-.47.73l1.42,4.8A.57.57,0,0,0,215.52,398.41Z" style="fill:#407BFF"></path><path d="M205.16,247.28l-29.2,9-12.24-1.38c-.38,3.82-.73,7.39-1,10.68a13.47,13.47,0,0,0,2.65,1.37c.53.2,1,.32,1.44.46s.89.21,1.28.27a19.36,19.36,0,0,0,4.14.25,31.68,31.68,0,0,0,3.31-.33,57.83,57.83,0,0,0,10.82-3,103.14,103.14,0,0,0,9.52-4.14,98.07,98.07,0,0,0,9-5,5,5,0,0,0,2.22-5.16A4.92,4.92,0,0,0,205.16,247.28Z" style="opacity:0.2"></path><path d="M180.84,218.71s-5.24,31.76,8,28.57L173.28,250l-2.52-5.94s3.46-4.25,3.62-16.07l.16-11.81,4.09,1.17Z" style="opacity:0.2"></path><path d="M186.6,177.63s-.18-11.7,9.45-15.63,17.72,1.76,21.19,4.86-10.39-2.52-8.88,2.71C208.36,169.57,201,166.71,186.6,177.63Z" style="fill:#407BFF"></path><path d="M204.78,163.79c-4.59-.13-5.26,4.71-5.35,6.62,5.92-2,8.93-.84,8.93-.84-1.3-4.5,8.77-1,9.4-1.87C215.27,166.54,209.21,163.92,204.78,163.79Z" style="opacity:0.2"></path><path d="M187.42,179.24c1.94-2.13,8.57-7.84,23.21-6.66a.61.61,0,0,0,.61-.88c-1.15-2.18-4.8-6.71-17.5-2.13-7.77,2.8-7.74,7.4-7.29,9.4A.57.57,0,0,0,187.42,179.24Z" style="fill:#407BFF"></path><path d="M187.42,179.24c1.94-2.13,8.57-7.84,23.21-6.66a.61.61,0,0,0,.61-.88c-1.15-2.18-4.8-6.71-17.5-2.13-7.77,2.8-7.74,7.4-7.29,9.4A.57.57,0,0,0,187.42,179.24Z" style="fill:#fff;opacity:0.7000000000000001"></path><path d="M216,166.52c.14-.24.11-.89.31-1.09s.86-.16,1.11-.31.54-.72.82-.79.82.29,1.11.29.83-.35,1.11-.27.56.66.81.8.9.12,1.1.32.16.86.3,1.1.72.55.79.83-.29.82-.29,1.1.35.84.27,1.11-.66.57-.8.82-.12.89-.32,1.09-.85.16-1.1.31-.55.72-.83.79-.82-.29-1.1-.29-.84.35-1.11.27-.57-.66-.82-.8-.89-.12-1.09-.32-.16-.86-.3-1.11-.72-.54-.8-.82.29-.82.3-1.11-.35-.83-.28-1.11S215.81,166.77,216,166.52Z" style="fill:#407BFF"></path><path d="M216,166.52c.14-.24.11-.89.31-1.09s.86-.16,1.11-.31.54-.72.82-.79.82.29,1.11.29.83-.35,1.11-.27.56.66.81.8.9.12,1.1.32.16.86.3,1.1.72.55.79.83-.29.82-.29,1.1.35.84.27,1.11-.66.57-.8.82-.12.89-.32,1.09-.85.16-1.1.31-.55.72-.83.79-.82-.29-1.1-.29-.84.35-1.11.27-.57-.66-.82-.8-.89-.12-1.09-.32-.16-.86-.3-1.11-.72-.54-.8-.82.29-.82.3-1.11-.35-.83-.28-1.11S215.81,166.77,216,166.52Z" style="fill:#fff;opacity:0.7000000000000001"></path><g style="opacity:0.2"><path d="M215.45,169.13a1.4,1.4,0,0,0-.17-.2,1.26,1.26,0,0,0-.15.62c.05.19.35.4.57.59C215.56,169.88,215.58,169.35,215.45,169.13Z" style="opacity:0.7000000000000001"></path><path d="M222.37,165.56a.14.14,0,0,0-.13-.13A1.59,1.59,0,0,0,222.37,165.56Z" style="opacity:0.7000000000000001"></path><path d="M222.65,167.26c0,.28.35.83.27,1.11s-.65.56-.8.81-.11.9-.32,1.1-.85.16-1.1.3-.55.72-.82.79-.82-.29-1.11-.29-.83.35-1.11.27-.57-.66-.81-.8-.76-.13-1-.27l.09.09c.14.25.1.9.3,1.11s.85.17,1.09.32.54.72.82.8.82-.28,1.11-.27.83.36,1.1.29.58-.65.83-.79.9-.1,1.1-.31.17-.85.32-1.09.73-.54.8-.82-.27-.82-.27-1.11.36-.82.29-1.1-.4-.43-.62-.63A1.67,1.67,0,0,0,222.65,167.26Z" style="opacity:0.7000000000000001"></path></g><polygon points="216.44 251.93 225.69 214.97 251.92 217.13 252.31 217.53 243.07 254.49 216.84 252.34 216.44 251.93" style="fill:#263238"></polygon><polygon points="216.44 251.93 225.69 214.97 251.92 217.13 252.31 217.53 243.07 254.49 216.84 252.34 216.44 251.93" style="fill:#fff;opacity:0.6000000000000001"></polygon><polygon points="216.84 252.34 243.07 254.49 252.31 217.53 226.09 215.38 216.84 252.34" style="fill:#fff;opacity:0.7000000000000001"></polygon><polygon points="216.84 252.34 243.07 254.49 252.31 217.53 216.84 252.34" style="opacity:0.1"></polygon><path d="M212.07,247.28a5,5,0,0,0-5.85-3.94l-.14,0c-6.26,1.22-12.62,2.65-18.65,3.57a56.17,56.17,0,0,1-8.44.8h-.08c0-.26-.08-.55-.11-.86a28.65,28.65,0,0,1-.15-3.62,85.32,85.32,0,0,1,.63-8.55c.35-3,.81-6,1.31-9l.8-4.56.82-4.44.08-.4a9.92,9.92,0,0,0-19.41-4.06l-.63,2.63c-.19.85-.35,1.7-.52,2.54-.35,1.7-.63,3.4-.9,5.11-.54,3.42-.94,6.89-1.19,10.44a79.92,79.92,0,0,0,0,11.07,47,47,0,0,0,.82,6.15,24.75,24.75,0,0,0,2.75,7.41,18.63,18.63,0,0,0,1.52,2.2c.32.37.66.75,1,1.12l.59.55.32.28.43.35a12.77,12.77,0,0,0,3.32,1.84,14.79,14.79,0,0,0,1.44.46c.43.1.89.22,1.28.28a18.67,18.67,0,0,0,4.14.24,29.18,29.18,0,0,0,3.31-.33,56.35,56.35,0,0,0,10.82-3,103.14,103.14,0,0,0,9.52-4.14,96.91,96.91,0,0,0,9-5A5,5,0,0,0,212.07,247.28Z" style="fill:#407BFF"></path><path d="M206,243.24c-.63,1.23.07,4.17.42,5.51,1.49,5.61,8.68.91,8.68.91l3.82-.88A2.93,2.93,0,0,0,221,245.6l-.26-3.85a3.07,3.07,0,0,0-3-3l-3.42.22a6,6,0,0,0-2.8.89S206.76,241.8,206,243.24Z" style="fill:#ffb573"></path></g><g id="freepik--character-1--inject-440"><path d="M115.4,187.77s-.34,10.59,4.18,17.88-13.47,6.54-16.89,8.21S90.55,217,91.45,207.53,93.27,189,93.27,189l4.25-3.75Z" style="fill:#263238"></path><path d="M159.05,411.39c-5.81.2-6.58.14-9.84.15-2.8,0-3.45.37-5.7.4-1.88,0-1.87-1.77-1.36-3.86.25-1,.62-3.25,1-4.94l7.48-2.92c1.27,2.24,5.09,7.4,8.38,7.73C162.1,408.25,161.36,411.31,159.05,411.39Z" style="fill:#263238"></path><path d="M128.84,249.69s5.33,49.91,7.28,73.22c2,24.49,10.71,62.48,15.34,77.7-1.14,1.09-6.06,1.71-8.86,1.52,0,0-26.87-47.87-21-74-20.6-52.84-14-75.81-14-75.81Z" style="fill:#263238"></path><path d="M150.23,394c.5,1.34,1.39,3.66,2.24,5.38a1.24,1.24,0,0,1-.15,1.56c-3.21,2.09-8.74,2.6-10.51,2.71a1.08,1.08,0,0,1-.92-.74L138.58,398c-.32-.67-.18-1.43.28-1.58l10.27-3.22C149.53,393,150,393.39,150.23,394Z" style="fill:#407BFF"></path><path d="M118.6,320.06c-2.78-17.2-.16-46.95-.16-46.95l-1.83-9.67-3.5,3-6,6.18C108.1,283.6,111.14,299.25,118.6,320.06Z" style="opacity:0.5"></path><path d="M114.94,411.79c-5.8,0-6.57-.09-9.83-.2-2.8-.1-3.47.25-5.71.2-1.88,0-1.81-1.84-1.23-3.9.29-1,.74-3.23,1.14-4.91l8.5-.62c1.2,2.29,3.9,5.55,7.18,6C118.11,408.77,117.26,411.79,114.94,411.79Z" style="fill:#263238"></path><path d="M121.11,252.81s-6.21,48.05-9.77,71.17c-3.74,24.29-4.21,63.25-3.28,79.13-1.36.79-6.29.24-9-.59,0,0-16.11-52.1-4.28-76.14-7.66-56.19,3.43-69.95,3.43-69.95Z" style="fill:#263238"></path><path d="M108.42,396.39c.17,1.42.5,3.88.92,5.75a1.26,1.26,0,0,1-.51,1.49c-3.62,1.28-9.11.48-10.86.17a1.09,1.09,0,0,1-.72-.93l-1.08-5.36c-.15-.73.16-1.43.64-1.47l10.74-.73C108,395.28,108.35,395.75,108.42,396.39Z" style="fill:#407BFF"></path><path d="M125.74,215.07l-.16.66-.17.84c-.11.57-.19,1.16-.25,1.74a23.24,23.24,0,0,0-.12,3.53,19.1,19.1,0,0,0,1.52,6.68,17.22,17.22,0,0,0,1.68,3c.32.49.68.94,1,1.4l.59.66.52.62a11,11,0,0,0,1.88,1.84,3.49,3.49,0,0,0,.86.48,2.62,2.62,0,0,0,.5.13l.27,0,.13,0a.06.06,0,0,1,.05,0s0,0,0,.07a2.23,2.23,0,1,1,3.09,3.21l-.38.43c-.11.11-.21.22-.32.31a6.88,6.88,0,0,1-.67.54,6.59,6.59,0,0,1-1.54.79,7.67,7.67,0,0,1-3.41.4,11.81,11.81,0,0,1-5.58-2.24c-.36-.27-.74-.54-1.08-.83l-.91-.87c-.59-.61-1.18-1.23-1.71-1.9a24.55,24.55,0,0,1-2.83-4.32,25.59,25.59,0,0,1-2.71-9.89,27.46,27.46,0,0,1,.09-5c.09-.84.22-1.67.39-2.51.08-.42.18-.83.29-1.26l.18-.65c.07-.24.12-.4.24-.76a4.49,4.49,0,0,1,8.62,2.48Z" style="fill:#263238"></path><path d="M128.56,216.53a94.55,94.55,0,0,1,1,12.81c.19,6.28.5,15.53.31,25.91l-32.89,1.93c0-9-1-18.87-8.15-37.9a8,8,0,0,1,5.68-10.51c1.25-.33,2.59-.64,4-.92a106,106,0,0,1,14.47-2.26c1.58-.11,3.23-.16,4.8-.19C123.37,205.29,128,211,128.56,216.53Z" style="fill:#407BFF"></path><path d="M98.92,193c1.57,4.33,3.68,12.38.91,15.86,0,0,4.3-1.32,13.92,2.87,2.4-4.2.33-5.09.33-5.09-5.29-.39-5.7-4.11-5.33-7.73Z" style="fill:#ce7a63"></path><path d="M102.93,195.37l5.82,3.5a13.58,13.58,0,0,0-.07,2.54c-2,0-5-1.65-5.5-3.61A6.56,6.56,0,0,1,102.93,195.37Z" style="opacity:0.2"></path><path d="M93.93,182.51c1.17,7.43,1.5,10.6,5.61,14.27,6.19,5.53,15,3,16-4.54,1-6.76-1.1-17.78-8.65-20.45A9.64,9.64,0,0,0,93.93,182.51Z" style="fill:#ce7a63"></path><path d="M105.74,185.8c.08.63.46,1.13.86,1.11s.67-.54.6-1.17-.46-1.12-.86-1.1S105.67,185.18,105.74,185.8Z" style="fill:#263238"></path><path d="M113.55,185.23c.07.63.45,1.12.85,1.1s.67-.54.6-1.17-.45-1.12-.85-1.1S113.48,184.6,113.55,185.23Z" style="fill:#263238"></path><path d="M114,184.1l1.42-.5S114.78,184.81,114,184.1Z" style="fill:#263238"></path><path d="M111.32,186.71a18.82,18.82,0,0,0,2.64,3.92,2.53,2.53,0,0,1-2.14.51Z" style="fill:#ba4d3c"></path><path d="M104.15,181.92a.34.34,0,0,0,.26-.11,2.7,2.7,0,0,1,2.42-.84.34.34,0,0,0,.41-.28.4.4,0,0,0-.3-.44,3.37,3.37,0,0,0-3.07,1,.37.37,0,0,0,0,.52A.42.42,0,0,0,104.15,181.92Z" style="fill:#263238"></path><path d="M116.29,181a.34.34,0,0,0,.26,0,.36.36,0,0,0,.06-.51,3.86,3.86,0,0,0-3-1.7.33.33,0,0,0-.33.37.4.4,0,0,0,.39.37A3,3,0,0,1,116,180.8.37.37,0,0,0,116.29,181Z" style="fill:#263238"></path><path d="M106.17,184.68l1.43-.5S107,185.39,106.17,184.68Z" style="fill:#263238"></path><path d="M141.61,234.76l-.5,2.05a2.7,2.7,0,0,1-1.47,1.78l-3.4,1.63a4.47,4.47,0,0,1-4.12-.06l-.76-.43c.61-3.43,3.77-6.92,3.77-6.92l.8-1.08a2.11,2.11,0,0,1,2.84-.66l2,1.38A2.13,2.13,0,0,1,141.61,234.76Z" style="fill:#ce7a63"></path><path d="M119.58,205.65c5.65.46,9.44,5.13,10.37,14-2.65,3.65-12.22,6.38-12.22,6.38S114,212.09,119.58,205.65Z" style="fill:#407BFF"></path><path d="M110.41,169.58s-5.38-8.69-14.32-7-12.21,9.64-13.3,13.56,6.46-6.75,7.81-2.19C90.6,173.91,94.67,168.34,110.41,169.58Z" style="fill:#407BFF"></path><path d="M90.51,168c3.32-2.26,6.1,1,7.06,2.35-5.3,1.32-7,3.59-7,3.59-1.16-3.93-6.91,3.43-7.8,3.06C84.09,174.94,87.31,170.16,90.51,168Z" style="opacity:0.2"></path><path d="M110.57,171.15c-2.43-.65-10-1.72-20.22,6a.53.53,0,0,1-.87-.36c-.18-2.14.38-7.2,11.88-9.81,7-1.6,9.18,1.8,9.8,3.48A.5.5,0,0,1,110.57,171.15Z" style="fill:#407BFF"></path><path d="M110.57,171.15c-2.43-.65-10-1.72-20.22,6a.53.53,0,0,1-.87-.36c-.18-2.14.38-7.2,11.88-9.81,7-1.6,9.18,1.8,9.8,3.48A.5.5,0,0,1,110.57,171.15Z" style="fill:#fff;opacity:0.7000000000000001"></path><path d="M83.58,175.25c-.23-.11-.51-.61-.76-.66s-.7.29-.95.3-.74-.27-1-.19-.47.59-.68.73-.77.14-.94.32-.11.76-.22,1-.61.51-.66.75.29.7.3,1-.27.75-.19,1,.6.47.73.68.14.78.32.95.76.1,1,.21.51.61.75.66.7-.28,1-.3.75.27,1,.2.47-.6.68-.74.78-.13,1-.32.1-.75.21-1,.61-.51.66-.76-.28-.7-.3-1,.28-.74.2-1-.6-.47-.74-.68-.13-.78-.32-.94S83.8,175.36,83.58,175.25Z" style="fill:#407BFF"></path><path d="M83.58,175.25c-.23-.11-.51-.61-.76-.66s-.7.29-.95.3-.74-.27-1-.19-.47.59-.68.73-.77.14-.94.32-.11.76-.22,1-.61.51-.66.75.29.7.3,1-.27.75-.19,1,.6.47.73.68.14.78.32.95.76.1,1,.21.51.61.75.66.7-.28,1-.3.75.27,1,.2.47-.6.68-.74.78-.13,1-.32.1-.75.21-1,.61-.51.66-.76-.28-.7-.3-1,.28-.74.2-1-.6-.47-.74-.68-.13-.78-.32-.94S83.8,175.36,83.58,175.25Z" style="fill:#fff;opacity:0.7000000000000001"></path><g style="opacity:0.2"><path d="M85.18,176.93a.69.69,0,0,1,0-.23,1.15,1.15,0,0,1,.4.39,1.64,1.64,0,0,1-.14.7C85.45,177.54,85.19,177.15,85.18,176.93Z" style="opacity:0.7000000000000001"></path><path d="M78.4,177.57s0-.07,0-.09l0-.08A1,1,0,0,1,78.4,177.57Z" style="opacity:0.7000000000000001"></path><path d="M79,179c.14.21.14.78.33.94s.75.11,1,.22.51.61.75.66.71-.29,1-.3.74.27,1,.19.46-.59.67-.73.78-.14.95-.32.1-.76.22-1,.49-.45.61-.67c0,0,0,.08,0,.11,0,.25.35.71.3,1s-.54.53-.66.76,0,.78-.21,1-.74.19-1,.32-.44.66-.68.74-.73-.21-1-.2-.71.35-1,.3-.53-.54-.75-.66-.79-.05-1-.21-.18-.74-.32-.95-.66-.44-.73-.68.09-.5.16-.75A1.22,1.22,0,0,1,79,179Z" style="opacity:0.7000000000000001"></path></g><path d="M95.61,186c8.5,7,5.75-6.76,5.75-6.76l.42-5.16s1.4,1.82,1.12,5.91c0,0,7.74-4.3,13.06-1.69,0,0-.91-12.15-15-9.47,0,0-11.13.72-11.48,12.28s2.73,21.3,1.4,27.47,7.51-4.25,9.71-4.25Z" style="fill:#263238"></path><path d="M92.06,188.75a6,6,0,0,0,3.82,2.59c2,.37,2.72-1.64,1.92-3.58-.72-1.74-2.64-4-4.54-3.53S90.94,187.06,92.06,188.75Z" style="fill:#ce7a63"></path><path d="M106.6,214.48s2.67,17.56.26,41.76l7.86-.17s3.3-14.43-2.64-42.59Z" style="fill:#407BFF"></path><path d="M106.6,214.48s2.67,17.56.26,41.76l7.86-.17s3.3-14.43-2.64-42.59Z" style="fill:#fff;opacity:0.5"></path><path d="M114.23,209.17s7.68,18.76,5.84,51.5L109.82,264s3.05-29.77-1.48-53.78Z" style="fill:#407BFF"></path><path d="M114.23,209.17s7.68,18.76,5.84,51.5L109.82,264s3.05-29.77-1.48-53.78Z" style="fill:#fff;opacity:0.7000000000000001"></path><path d="M114.23,209.17a50.93,50.93,0,0,1,1.64,5.05,11.86,11.86,0,0,1-6.39,3.33c-.31-2.47-.69-4.91-1.14-7.3Z" style="opacity:0.1"></path><path d="M113.93,201.47c-2,.73-5.83,1.21-12.79-1.08a2.25,2.25,0,0,0-2.72,1.55,20,20,0,0,1-4.88,7.54s16.49,16,26.12-3.49c0,0-2.08-.61-3.36-3.61A1.79,1.79,0,0,0,113.93,201.47Z" style="fill:#407BFF"></path><path d="M113.93,201.47c-2,.73-5.83,1.21-12.79-1.08a2.25,2.25,0,0,0-2.72,1.55,20,20,0,0,1-4.88,7.54s16.49,16,26.12-3.49c0,0-2.08-.61-3.36-3.61A1.79,1.79,0,0,0,113.93,201.47Z" style="fill:#fff;opacity:0.8"></path><path d="M116.45,205.76s-4.08,4.8-12.13,3.37C104.32,209.13,114.58,215,116.45,205.76Z" style="opacity:0.1"></path><polygon points="110.93 247.67 119.74 212.47 144.72 214.52 145.1 214.91 136.29 250.11 111.31 248.06 110.93 247.67" style="fill:#263238"></polygon><polygon points="110.93 247.67 119.74 212.47 144.72 214.52 145.1 214.91 136.29 250.11 111.31 248.06 110.93 247.67" style="fill:#fff;opacity:0.6000000000000001"></polygon><polygon points="111.31 248.06 136.29 250.11 145.1 214.91 120.12 212.85 111.31 248.06" style="fill:#fff;opacity:0.7000000000000001"></polygon><polygon points="111.31 248.06 136.29 250.11 145.1 214.91 111.31 248.06" style="opacity:0.1"></polygon><path d="M114.93,241.63a2.26,2.26,0,0,0-2.77-1.56l-.1,0c-1.52.42-3.12.89-4.68,1.24s-3.11.72-4.62.94a19,19,0,0,1-4.2.26,4.92,4.92,0,0,1-1.19-.21,28.55,28.55,0,0,1-2-8.35,41.56,41.56,0,0,1-.12-4.74c0-.79.08-1.58.16-2.36l.13-1.15.08-.56.06-.44.06-.39a4.49,4.49,0,0,0-8.84-1.56l-.18.88-.14.77c-.08.51-.14,1-.19,1.52-.1,1-.17,2-.2,3a36.82,36.82,0,0,0,.32,6,33.65,33.65,0,0,0,1.35,6,31.09,31.09,0,0,0,2.49,5.68l.13.23a3.43,3.43,0,0,0,.4.54,7.94,7.94,0,0,0,4.17,2.41,12.42,12.42,0,0,0,3.6.26,23.39,23.39,0,0,0,5.74-1.23,42.7,42.7,0,0,0,5-2.09,48.61,48.61,0,0,0,4.62-2.65A2.28,2.28,0,0,0,114.93,241.63Z" style="fill:#263238"></path><path d="M92.21,209.81c-6.08,3.14-7.12,5.7-6.4,16.71,3.47,2.34,13.31,1,13.31,1S99.18,213.56,92.21,209.81Z" style="fill:#407BFF"></path><path d="M119.65,237l-2-.46a2.63,2.63,0,0,0-2.25.57l-3,2.52c-1.21,1-2.52,3.79-1.83,4.9,1.84,2.93,7.86-.42,7.86-.42l1.33-.27a2.28,2.28,0,0,0,1.89-2.41l-.26-2.6A2.13,2.13,0,0,0,119.65,237Z" style="fill:#ce7a63"></path><path d="M112.81,193.35a31.43,31.43,0,0,0-6.09-.2,3.81,3.81,0,0,0,4,2.36A2,2,0,0,0,112.81,193.35Z" style="fill:#263238"></path><path d="M109.56,194.46a4.33,4.33,0,0,1,2.55.59,2.28,2.28,0,0,1-1.4.46,4.22,4.22,0,0,1-2.54-.6A2.25,2.25,0,0,1,109.56,194.46Z" style="fill:#ff5652"></path><path d="M112.6,193.32a.87.87,0,0,1-.64.7,24.53,24.53,0,0,1-4-.23,1.35,1.35,0,0,1-1.07-.65A35.44,35.44,0,0,1,112.6,193.32Z" style="fill:#fff"></path></g></svg>
